0
SECTION
2
HEADER
9
$INSUNITS
70
4
9
$ACADVER
1
AC1014
9
$HANDSEED
5
FFFF
0
ENDSEC
0
SECTION
2
TABLES
0
TABLE
2
VPORT
5
8
100
AcDbSymbolTable
0
ENDTAB
0
TABLE
2
LTYPE
5
5
100
AcDbSymbolTable
0
LTYPE
5
14
100
AcDbSymbolTableRecord
100
AcDbLinetypeTableRecord
2
BYBLOCK
70
0
0
LTYPE
5
15
100
AcDbSymbolTableRecord
100
AcDbLinetypeTableRecord
2
BYLAYER
70
0
0
ENDTAB
0
TABLE
2
LAYER
5
2
100
AcDbSymbolTable
70
2
0
LAYER
5
50
100
AcDbSymbolTableRecord
100
AcDbLayerTableRecord
2
0
70
0
6
CONTINUOUS
0
ENDTAB
0
TABLE
2
STYLE
5
3
100
AcDbSymbolTable
70
1
0
STYLE
5
11
100
AcDbSymbolTableRecord
100
AcDbTextStyleTableRecord
2
STANDARD
70
0
0
ENDTAB
0
TABLE
2
VIEW
5
6
100
AcDbSymbolTable
70
0
0
ENDTAB
0
TABLE
2
UCS
5
7
100
AcDbSymbolTable
70
0
0
ENDTAB
0
TABLE
2
APPID
5
9
100
AcDbSymbolTable
70
2
0
APPID
5
12
100
AcDbSymbolTableRecord
100
AcDbRegAppTableRecord
2
ACAD
70
0
0
ENDTAB
0
TABLE
2
DIMSTYLE
5
A
100
AcDbSymbolTable
70
1
0
ENDTAB
0
TABLE
2
BLOCK_RECORD
5
1
100
AcDbSymbolTable
70
1
0
BLOCK_RECORD
5
1F
100
AcDbSymbolTableRecord
100
AcDbBlockTableRecord
2
*MODEL_SPACE
0
BLOCK_RECORD
5
1B
100
AcDbSymbolTableRecord
100
AcDbBlockTableRecord
2
*PAPER_SPACE
0
ENDTAB
0
ENDSEC
0
SECTION
2
BLOCKS
0
BLOCK
5
20
100
AcDbEntity
100
AcDbBlockBegin
2
*MODEL_SPACE
0
ENDBLK
5
21
100
AcDbEntity
100
AcDbBlockEnd
0
BLOCK
5
1C
100
AcDbEntity
100
AcDbBlockBegin
2
*PAPER_SPACE
0
ENDBLK
5
1D
100
AcDbEntity
100
AcDbBlockEnd
0
ENDSEC
0
SECTION
2
ENTITIES
0
LWPOLYLINE
5
100
100
AcDbEntity
8
0
100
AcDbPolyline
90
8
70
1
43
0.0
10
-198.23103560749416
20
73.674012989202097
10
-195.52818362686338
20
60.958094179662609
42
0.41421356237309825
10
-194.93515398108758
20
60.57297622470459
10
-182.21923517154801
20
63.275828205335486
42
0.4142135623730972
10
-181.83411721658999
20
63.868857851111258
10
-184.53696919722088
20
76.584776660650732
42
0.41421356237309104
10
-185.12999884299666
20
76.969894615608766
10
-197.84591765253617
20
74.267042634977869
42
0.4142135623730972
0
LWPOLYLINE
5
101
100
AcDbEntity
8
0
100
AcDbPolyline
90
8
70
1
43
0.0
10
-289.21949999999566
20
84.839999996093439
10
-289.21949999999578
20
71.840000001674085
42
0.41421356237139373
10
-288.71949999999867
20
71.340000001674071
10
-275.71949999999879
20
71.340000001598696
42
0.41421356237479634
10
-275.21949999999583
20
71.840000001598682
10
-275.21949999999572
20
84.839999996269512
42
0.41421356237706997
10
-275.71950000000248
20
85.339999996269498
10
-288.71950000000243
20
85.339999996093439
42
0.41421356236912005
0
LWPOLYLINE
5
102
100
AcDbEntity
8
0
100
AcDbPolyline
90
8
70
1
43
0.0
10
-289.22000000000014
20
27.690000000000026
10
-289.22000000000014
20
14.689999999999987
42
0.41421356237309503
10
-288.72000000000008
20
14.189999999999985
10
-275.72000000000014
20
14.189999999999973
42
0.41421356237309503
10
-275.22000000000014
20
14.689999999999975
10
-275.22000000000014
20
27.690000000000055
42
0.41421356237309503
10
-275.72000000000014
20
28.190000000000047
10
-288.72000000000008
20
28.190000000000026
42
0.41421356237309503
0
LWPOLYLINE
5
103
100
AcDbEntity
8
0
100
AcDbPolyline
90
8
70
1
43
0.0
10
-286.35375000000022
20
46.740000000000038
10
-286.35375000000022
20
33.740000000000002
42
0.41421356237309503
10
-285.85375000000022
20
33.239999999999995
10
-272.85375000000016
20
33.239999999999995
42
0.41421356237309503
10
-272.35375000000016
20
33.739999999999995
10
-272.35375000000016
20
46.74000000000003
42
0.41421356237309503
10
-272.85375000000016
20
47.24000000000003
10
-285.85375000000016
20
47.240000000000038
42
0.41421356237309503
0
LWPOLYLINE
5
104
100
AcDbEntity
8
0
100
AcDbPolyline
90
8
70
1
43
0.0
10
-254.80000000000007
20
65.790000000000049
10
-254.80000000000004
20
52.789999999999999
42
0.41421356237309503
10
-254.30000000000004
20
52.290000000000006
10
-241.3000000000001
20
52.29000000000002
42
0.41421356237309503
10
-240.8000000000001
20
52.79000000000002
10
-240.80000000000001
20
65.790000000000049
42
0.41421356237309503
10
-241.30000000000001
20
66.290000000000035
10
-254.30000000000007
20
66.290000000000035
42
0.41421356237309503
0
LWPOLYLINE
5
105
100
AcDbEntity
8
0
100
AcDbPolyline
90
8
70
1
43
0.0
10
-246.66
20
47.240000000000023
10
-259.66000000000014
20
47.240000000000023
42
0.41421356237309503
10
-260.16000000000014
20
46.740000000000023
10
-260.16000000000014
20
33.739999999999995
42
0.41421356237309503
10
-259.66000000000014
20
33.239999999999995
10
-246.66
20
33.240000000000002
42
0.41421356237309503
10
-246.16
20
33.740000000000002
10
-246.16
20
46.740000000000023
42
0.41421356237309503
0
LWPOLYLINE
5
106
100
AcDbEntity
8
0
100
AcDbPolyline
90
8
70
1
43
0.0
10
-240.3084591954522
20
85.742577569045636
10
-237.60560721482108
20
73.026658759505864
42
0.41421356237309209
10
-237.01257756904528
20
72.641540804547844
10
-224.29665875950587
20
75.344392785178812
42
0.41421356237309875
10
-223.9115408045478
20
75.937422430954598
10
-226.61439278517889
20
88.6533412404941
42
0.41421356237308704
10
-227.20742243095469
20
89.038459195452106
10
-239.92334124049418
20
86.335607214821422
42
0.41421356237310308
0
LWPOLYLINE
5
107
100
AcDbEntity
8
0
100
AcDbPolyline
90
8
70
1
43
0.0
10
-235.49845919545217
20
65.752577569045428
10
-232.79560721482119
20
53.036658759505954
42
0.41421356237309209
10
-232.20257756904542
20
52.651540804547935
10
-219.48665875950604
20
55.35439278517876
42
0.41421356237310308
10
-219.10154080454799
20
55.947422430954546
10
-221.80439278517889
20
68.663341240494134
42
0.41421356237309104
10
-222.39742243095466
20
69.048459195452153
10
-235.11334124049415
20
66.345607214821214
42
0.41421356237310231
0
LWPOLYLINE
5
108
100
AcDbEntity
8
0
100
AcDbPolyline
90
8
70
1
43
0.0
10
-216.86474740147315
20
69.713295279123727
10
-214.16189542084223
20
56.997376469584289
42
0.41421356237309209
10
-213.56886577506643
20
56.612258514626276
10
-200.85294696552705
20
59.315110495257159
42
0.41421356237309798
10
-200.46782901056901
20
59.908140141032938
10
-203.17068099119993
20
72.624058950572405
42
0.4142135623730932
10
-203.76371063697573
20
73.00917690553041
10
-216.4796294465151
20
70.306324924899513
42
0.41421356237309798
0
LWPOLYLINE
5
109
100
AcDbEntity
8
0
100
AcDbPolyline
90
8
70
1
43
0.0
10
-216.16703716305597
20
89.337186500617364
10
-213.46418518242476
20
76.621267691077975
42
0.41421356237309354
10
-212.87115553664898
20
76.236149736120026
10
-193.16759480436713
20
80.424270858030809
42
0.41421356237310308
10
-192.78247684940908
20
81.017300503806595
10
-195.48532883004029
20
93.733219313346041
42
0.41421356237308704
10
-196.07835847581609
20
94.11833726830406
10
-215.78191920809797
20
89.930216146393164
42
0.41421356237310736
0
LWPOLYLINE
5
110
100
AcDbEntity
8
0
100
AcDbPolyline
90
8
70
1
43
0.0
10
-190.54568344633498
20
94.783173351975748
10
-187.84283146570377
20
82.067254542436359
42
0.41421356237310525
10
-187.24980181992794
20
81.682136587478325
10
-167.54624108764654
20
85.870257709389094
42
0.41421356237307255
10
-167.16112313268852
20
86.46328735516488
10
-169.86397511331941
20
99.179206164704382
42
0.4142135623730972
10
-170.45700475909518
20
99.564324119662402
10
-190.16056549137699
20
95.376202997751548
42
0.41421356237310736
0
LWPOLYLINE
5
111
100
AcDbEntity
8
0
100
AcDbPolyline
90
8
70
1
43
0.0
10
-179.59732381351515
20
77.634730699280453
10
-176.89447183288434
20
64.918811889740965
42
0.41421356237309209
10
-176.30144218710853
20
64.533693934782946
10
-163.58552337756896
20
67.236545915413814
42
0.4142135623730972
10
-163.20040542261097
20
67.829575561189586
10
-165.90325740324187
20
80.545494370729074
42
0.4142135623730972
10
-166.49628704901767
20
80.930612325687093
10
-179.2122058585571
20
78.22776034505624
42
0.41421356237309798
0
LWPOLYLINE
5
112
100
AcDbEntity
8
0
100
AcDbPolyline
90
8
70
1
43
0.0
10
-240.85845919545221
20
45.1425775690454
10
-238.15560721482129
20
32.426658759505941
42
0.41421356237309104
10
-237.56257756904549
20
32.041540804547921
10
-224.846658759506
20
34.744392785178817
42
0.41421356237309853
10
-224.46154080454795
20
35.337422430954604
10
-227.16439278517873
20
48.053341240494106
42
0.4142135623730972
10
-227.75742243095453
20
48.438459195452133
10
-240.47334124049416
20
45.735607214821179
42
0.41421356237309798
0
LWPOLYLINE
5
113
100
AcDbEntity
8
0
100
AcDbPolyline
90
8
70
1
43
0.0
10
-222.22474740147319
20
49.10329527912377
10
-219.52189542084227
20
36.387376469584268
42
0.41421356237309159
10
-218.92886577506647
20
36.002258514626249
10
-206.21294696552684
20
38.705110495257166
42
0.41421356237310031
10
-205.82782901056885
20
39.298140141032952
10
-208.5306809911998
20
52.014058950572412
42
0.41421356237309209
10
-209.1237106369756
20
52.399176905530425
10
-221.83962944651515
20
49.696324924899564
42
0.41421356237309903
0
LWPOLYLINE
5
114
100
AcDbEntity
8
0
100
AcDbPolyline
90
8
70
1
43
0.0
10
-203.59103560749418
20
53.064012989202055
10
-200.88818362686322
20
40.348094179662617
42
0.41421356237309104
10
-200.29515398108742
20
39.96297622470459
10
-187.57923517154802
20
42.665828205335472
42
0.41421356237309798
10
-187.19411721658997
20
43.258857851111259
10
-189.8969691972209
20
55.974776660650775
42
0.41421356237309209
10
-190.48999884299667
20
56.359894615608788
10
-203.2059176525361
20
53.657042634977842
42
0.41421356237309875
0
LWPOLYLINE
5
115
100
AcDbEntity
8
0
100
AcDbPolyline
90
8
70
1
43
0.0
10
-171.8562870490176
20
60.320612325687115
10
-184.57220585855711
20
57.617760345056226
42
0.41421356237310308
10
-184.95732381351516
20
57.024730699280433
10
-182.25447183288424
20
44.308811889740973
42
0.4142135623730932
10
-181.66144218710843
20
43.923693934782968
10
-168.94552337756903
20
46.626545915413814
42
0.41421356237309798
10
-168.56040542261098
20
47.219575561189593
10
-171.26325740324179
20
59.935494370729089
42
0.4142135623730972
0
LWPOLYLINE
5
116
100
AcDbEntity
8
0
100
AcDbPolyline
90
8
70
1
43
0.0
10
-270.17000000000002
20
27.69000000000004
10
-270.17000000000002
20
14.689999999999985
42
0.41421356237309503
10
-269.67000000000002
20
14.189999999999985
10
-256.67000000000007
20
14.189999999999976
42
0.41421356237309503
10
-256.17000000000007
20
14.689999999999976
10
-256.17000000000007
20
27.690000000000051
42
0.41421356237309503
10
-256.67000000000007
20
28.190000000000047
10
-269.66999999999996
20
28.19000000000004
42
0.41421356237309503
0
LWPOLYLINE
5
117
100
AcDbEntity
8
0
100
AcDbPolyline
90
8
70
1
43
0.0
10
-251.53999999999999
20
26.630000000000024
10
-251.53999999999999
20
13.629999999999994
42
0.41421356237309503
10
-251.03999999999999
20
13.129999999999995
10
-238.04000000000002
20
13.130000000000006
42
0.41421356237309503
10
-237.54000000000002
20
13.630000000000006
10
-237.54000000000002
20
26.630000000000042
42
0.41421356237309503
10
-238.04000000000002
20
27.130000000000038
10
-251.03999999999999
20
27.130000000000024
42
0.41421356237309503
0
LWPOLYLINE
5
118
100
AcDbEntity
8
0
100
AcDbPolyline
90
8
70
1
43
0.0
10
-232.23845919545221
20
27.492577569045462
10
-229.53560721482123
20
14.776658759505967
42
0.41421356237309004
10
-228.94257756904545
20
14.391540804547949
10
-216.22665875950599
20
17.094392785178744
42
0.41421356237309975
10
-215.84154080454795
20
17.687422430954534
10
-218.54439278517873
20
30.4033412404941
42
0.4142135623731012
10
-219.13742243095453
20
30.788459195452141
10
-231.85334124049419
20
28.085607214821252
42
0.41421356237310281
0
LWPOLYLINE
5
119
100
AcDbEntity
8
0
100
AcDbPolyline
90
8
70
1
43
0.0
10
-213.60474740147333
20
31.453295279123754
10
-210.90189542084221
20
18.737376469584287
42
0.41421356237309087
10
-210.30886577506641
20
18.352258514626275
10
-197.59294696552703
20
21.055110495257114
42
0.41421356237309598
10
-197.20782901056901
20
21.648140141032897
10
-199.9106809911998
20
34.364058950572421
42
0.4142135623730992
10
-200.50371063697557
20
34.749176905530447
10
-213.21962944651531
20
32.046324924899551
42
0.41421356237310536
0
LWPOLYLINE
5
120
100
AcDbEntity
8
0
100
AcDbPolyline
90
8
70
1
43
0.0
10
-194.9710356074942
20
35.414012989202071
10
-192.26818362686322
20
22.698094179662633
42
0.41421356237309209
10
-191.67515398108745
20
22.31297622470462
10
-178.95923517154799
20
25.01582820533546
42
0.41421356237310109
10
-178.57411721658994
20
25.608857851111253
10
-181.27696919722092
20
38.324776660650741
42
0.4142135623730972
10
-181.86999884299669
20
38.709894615608761
10
-194.58591765253615
20
36.007042634977864
42
0.41421356237309853
0
LWPOLYLINE
5
121
100
AcDbEntity
8
0
100
AcDbPolyline
90
8
70
1
43
0.0
10
-176.33732381351518
20
39.37473069928042
10
-173.63447183288432
20
26.658811889740932
42
0.41421356237309465
10
-173.04144218710854
20
26.273693934782912
10
-160.325523377569
20
28.976545915413773
42
0.41421356237309559
10
-159.94040542261098
20
29.569575561189552
10
-162.64325740324179
20
42.285494370729097
42
0.4142135623730972
10
-163.23628704901756
20
42.670612325687117
10
-175.95220585855714
20
39.967760345056206
42
0.41421356237309853
0
LWPOLYLINE
5
122
100
AcDbEntity
8
0
100
AcDbPolyline
90
8
70
1
43
0.0
10
-16.519999999999971
20
44.600000000000087
10
-16.519999999999971
20
31.600000000000101
42
0.41421356237309503
10
-16.019999999999971
20
31.100000000000104
10
-3.0199999999999889
20
31.100000000000104
42
0.41421356237309503
10
-2.5199999999999889
20
31.600000000000104
10
-2.5199999999999916
20
44.600000000000094
42
0.41421356237309503
10
-3.0199999999999916
20
45.100000000000087
10
-16.019999999999968
20
45.100000000000087
42
0.41421356237309503
0
LWPOLYLINE
5
123
100
AcDbEntity
8
0
100
AcDbPolyline
90
8
70
1
43
0.0
10
-144.08462860706749
20
100.12266051012845
10
-146.7874805876981
20
87.406741700589805
42
0.41421356237309503
10
-146.40236263274008
20
86.813712054814033
10
-131.35722984895284
20
83.615770360423198
42
0.4142135623730972
10
-130.76420020317704
20
84.000888315381218
10
-128.06134822254634
20
96.716807124919924
42
0.4142135623730972
10
-128.44646617750436
20
97.309836770695725
10
-143.49159896129169
20
100.50777846508649
42
0.4142135623730972
0
LWPOLYLINE
5
124
100
AcDbEntity
8
0
100
AcDbPolyline
90
8
70
1
43
0.0
10
-118.13366675809107
20
94.095442985351738
10
-124.00255236035241
20
95.342913140334403
42
0.41421356237310308
10
-124.5955820067894
20
94.957795186394506
10
-127.50634570174883
20
81.263728781118658
42
0.41421356237309503
10
-127.12122774780896
20
80.670699134681669
10
-121.25234214554764
20
79.423228979699005
42
0.41421356237310336
10
-120.65931249911063
20
79.808346933638873
10
-117.7485488041512
20
93.502413338914735
42
0.4142135623730972
0
LWPOLYLINE
5
125
100
AcDbEntity
8
0
100
AcDbPolyline
90
8
70
1
43
0.0
10
-130.29779414144292
20
78.22776034505614
10
-143.01371295098238
20
80.930612325686994
42
0.41421356237309503
10
-143.60674259675815
20
80.54549437072896
10
-146.30959457738908
20
67.829575561189472
42
0.41421356237309903
10
-145.92447662243106
20
67.2365459154137
10
-133.20855781289163
20
64.533693934782818
42
0.41421356237309398
10
-132.61552816711583
20
64.918811889740851
10
-129.9126761864849
20
77.634730699280368
42
0.41421356237309903
0
LWPOLYLINE
5
126
100
AcDbEntity
8
0
100
AcDbPolyline
90
8
70
1
43
0.0
10
-111.66408234746392
20
74.267042634977813
10
-124.38000115700342
20
76.969894615608709
42
0.41421356237308998
10
-124.97303080277919
20
76.584776660650689
10
-127.6758827834101
20
63.86885785111118
42
0.41421356237310014
10
-127.29076482845208
20
63.275828205335394
10
-114.57484601891254
20
60.572976224704533
42
0.41421356237309503
10
-113.98181637313677
20
60.958094179662552
10
-111.2789643925059
20
73.674012989202041
42
0.41421356237309503
0
LWPOLYLINE
5
127
100
AcDbEntity
8
0
100
AcDbPolyline
90
8
70
1
43
0.0
10
-124.94779414144296
20
57.617760345056119
10
-137.66371295098241
20
60.320612325686994
42
0.41421356237309209
10
-138.25674259675819
20
59.935494370728975
10
-140.95959457738905
20
47.219575561189473
42
0.41421356237309503
10
-140.57447662243104
20
46.626545915413693
10
-127.85855781289152
20
43.923693934782797
42
0.41421356237309503
10
-127.26552816711575
20
44.308811889740824
10
-124.56267618648494
20
57.024730699280333
42
0.41421356237309614
0
LWPOLYLINE
5
128
100
AcDbEntity
8
0
100
AcDbPolyline
90
8
70
1
43
0.0
10
-124.24779414144294
20
37.987760345056124
10
-136.96371295098243
20
40.690612325686992
42
0.41421356237309503
10
-137.55674259675823
20
40.305494370728965
10
-140.25959457738909
20
27.589575561189477
42
0.4142135623730987
10
-139.87447662243108
20
26.996545915413691
10
-127.15855781289162
20
24.293693934782823
42
0.41421356237308904
10
-126.56552816711581
20
24.678811889740835
10
-123.8626761864849
20
37.394730699280345
42
0.41421356237309759
0
LWPOLYLINE
5
129
100
AcDbEntity
8
0
100
AcDbPolyline
90
8
70
1
43
0.0
10
-93.030370553484886
20
70.306324924899528
10
-105.74628936302443
20
73.00917690553041
42
0.41421356237309503
10
-106.3393190088002
20
72.62405895057239
10
-109.04217098943109
20
59.908140141032874
42
0.41421356237309503
10
-108.65705303447307
20
59.315110495257102
10
-95.941134224933535
20
56.612258514626205
42
0.41421356237309209
10
-95.348104579157749
20
56.997376469584218
10
-92.645252598526866
20
69.713295279123727
42
0.41421356237310525
0
LWPOLYLINE
5
130
100
AcDbEntity
8
0
100
AcDbPolyline
90
8
70
1
43
0.0
10
-106.31408234746394
20
53.65704263497782
10
-119.0300011570034
20
56.359894615608695
42
0.41421356237309503
10
-119.62303080277918
20
55.974776660650676
10
-122.32588278341007
20
43.258857851111173
42
0.41421356237309614
10
-121.94076482845205
20
42.665828205335387
10
-109.22484601891254
20
39.962976224704491
42
0.41421356237309664
10
-108.63181637313674
20
40.348094179662517
10
-105.92896439250592
20
53.064012989202034
42
0.41421356237309614
0
LWPOLYLINE
5
131
100
AcDbEntity
8
0
100
AcDbPolyline
90
8
70
1
43
0.0
10
-105.61408234746395
20
34.027042634977818
10
-118.33000115700347
20
36.729894615608714
42
0.41421356237309398
10
-118.92303080277925
20
36.34477666065068
10
-121.62588278341008
20
23.628857851111178
42
0.41421356237309503
10
-121.24076482845206
20
23.035828205335402
10
-108.52484601891257
20
20.332976224704492
42
0.41421356237309453
10
-107.9318163731368
20
20.718094179662518
10
-105.22896439250593
20
33.434012989202031
42
0.41421356237309814
0
LWPOLYLINE
5
132
100
AcDbEntity
8
0
100
AcDbPolyline
90
8
70
1
43
0.0
10
-100.98931900880017
20
52.014058950572363
10
-103.69217098943108
20
39.29814014103286
42
0.41421356237309814
10
-103.30705303447304
20
38.705110495257074
10
-90.591134224933597
20
36.00225851462622
42
0.41421356237309237
10
-89.99810457915784
20
36.387376469584247
10
-87.295252598526957
20
49.103295279123749
42
0.41421356237309503
10
-87.680370553484991
20
49.696324924899528
10
-100.39628936302441
20
52.399176905530389
42
0.41421356237309287
0
LWPOLYLINE
5
133
100
AcDbEntity
8
0
100
AcDbPolyline
90
8
70
1
43
0.0
10
-86.98037055348496
20
30.066324924899526
10
-99.696289363024434
20
32.769176905530379
42
0.41421356237309287
10
-100.28931900880019
20
32.384058950572353
10
-102.99217098943106
20
19.668140141032865
42
0.41421356237309659
10
-102.60705303447304
20
19.075110495257086
10
-89.891134224933609
20
16.372258514626196
42
0.41421356237309415
10
-89.298104579157808
20
16.757376469584216
10
-86.59525259852694
20
29.473295279123736
42
0.4142135623730987
0
LWPOLYLINE
5
134
100
AcDbEntity
8
0
100
AcDbPolyline
90
8
70
1
43
0.0
10
-81.655607214821174
20
28.423341240494047
10
-84.35845919545207
20
15.707422430954573
42
0.41421356237309814
10
-83.973341240494051
20
15.114392785178786
10
-71.257422430954591
20
12.411540804547885
42
0.41421356237309198
10
-70.664392785178819
20
12.796658759505908
10
-67.961540804547923
20
25.51257756904544
42
0.41421356237309814
10
-68.346658759505942
20
26.105607214821227
10
-81.062577569045402
20
28.80845919545207
42
0.41421356237309198
0
LWPOLYLINE
5
135
100
AcDbEntity
8
0
100
AcDbPolyline
90
8
70
1
43
0.0
10
-69.046658759505902
20
45.735607214821208
10
-81.762577569045419
20
48.43845919545209
42
0.41421356237309503
10
-82.355607214821191
20
48.053341240494063
10
-85.058459195452059
20
35.337422430954575
42
0.41421356237309814
10
-84.673341240494025
20
34.744392785178789
10
-71.957422430954551
20
32.041540804547907
42
0.41421356237309198
10
-71.364392785178779
20
32.426658759505933
10
-68.661540804547883
20
45.142577569045422
42
0.41421356237310014
0
LWPOLYLINE
5
136
100
AcDbEntity
8
0
100
AcDbPolyline
90
8
70
1
43
0.0
10
-74.396658759505897
20
66.345607214821229
10
-87.112577569045456
20
69.048459195452097
42
0.41421356237309287
10
-87.705607214821214
20
68.663341240494077
10
-90.408459195452082
20
55.947422430954568
42
0.41421356237309614
10
-90.023341240494062
20
55.354392785178781
10
-77.307422430954574
20
52.651540804547921
42
0.41421356237308998
10
-76.714392785178802
20
53.036658759505933
10
-74.011540804547863
20
65.752577569045442
42
0.41421356237310014
0
LWPOLYLINE
5
137
100
AcDbEntity
8
0
100
AcDbPolyline
90
8
70
1
43
0.0
10
-82.895607214821169
20
88.6533412404941
10
-85.598459195452094
20
75.93742243095457
42
0.41421356237309503
10
-85.21334124049406
20
75.344392785178798
10
-72.4974224309546
20
72.641540804547915
42
0.41421356237309503
10
-71.904392785178828
20
73.026658759505935
10
-69.201540804547946
20
85.742577569045494
42
0.41421356237309503
10
-69.586658759505966
20
86.335607214821266
10
-82.302577569045411
20
89.03845919545212
42
0.41421356237309287
0
LWPOLYLINE
5
138
100
AcDbEntity
8
0
100
AcDbPolyline
90
8
70
1
43
0.0
10
-68.709999999999994
20
65.79000000000002
10
-68.70999999999998
20
52.789999999999992
42
0.41421356237309503
10
-68.209999999999994
20
52.289999999999999
10
-55.209999999999972
20
52.290000000000006
42
0.41421356237309503
10
-54.70999999999998
20
52.790000000000006
10
-54.70999999999998
20
65.790000000000049
42
0.41421356237309503
10
-55.20999999999998
20
66.290000000000035
10
-68.210000000000008
20
66.29000000000002
42
0.41421356237309503
0
LWPOLYLINE
5
139
100
AcDbEntity
8
0
100
AcDbPolyline
90
8
70
1
43
0.0
10
-49.859999999999999
20
47.240000000000023
10
-62.860000000000014
20
47.240000000000023
42
0.41421356237309503
10
-63.359999999999999
20
46.740000000000023
10
-63.359999999999999
20
33.740000000000009
42
0.41421356237309503
10
-62.860000000000007
20
33.240000000000009
10
-49.859999999999985
20
33.240000000000009
42
0.41421356237309503
10
-49.359999999999999
20
33.740000000000009
10
-49.359999999999999
20
46.740000000000023
42
0.41421356237309503
0
LWPOLYLINE
5
140
100
AcDbEntity
8
0
100
AcDbPolyline
90
8
70
1
43
0.0
10
-49.159999999999982
20
28.190000000000019
10
-62.160000000000018
20
28.190000000000008
42
0.41421356237309503
10
-62.660000000000018
20
27.690000000000012
10
-62.659999999999997
20
14.689999999999998
42
0.41421356237309503
10
-62.160000000000004
20
14.189999999999998
10
-49.159999999999982
20
14.189999999999989
42
0.41421356237309503
10
-48.659999999999989
20
14.689999999999991
10
-48.659999999999989
20
27.690000000000023
42
0.41421356237309503
0
LWPOLYLINE
5
141
100
AcDbEntity
8
0
100
AcDbPolyline
90
8
70
1
43
0.0
10
-26.634999999992992
20
85.340000000001496
10
-39.634999999992992
20
85.340000000001496
42
0.41421356237303258
10
-40.134999999992985
20
84.840000000001595
10
-40.134999999995941
20
71.840000000001623
42
0.41421356237316265
10
-39.634999999995941
20
71.34000000000151
10
-26.634999999995937
20
71.34000000000151
42
0.41421356237302737
10
-26.134999999995934
20
71.840000000001382
10
-26.134999999992992
20
84.840000000001382
42
0.41421356237315748
0
LWPOLYLINE
5
142
100
AcDbEntity
8
0
100
AcDbPolyline
90
8
70
1
43
0.0
10
-29.016249999999971
20
66.290000000000035
10
-42.016249999999985
20
66.290000000000035
42
0.41421356237309503
10
-42.516249999999978
20
65.790000000000035
10
-42.516249999999964
20
52.789999999999999
42
0.41421356237309503
10
-42.016249999999964
20
52.289999999999999
10
-29.016249999999964
20
52.289999999999999
42
0.41421356237309503
10
-28.516249999999971
20
52.789999999999999
10
-28.516249999999971
20
65.790000000000035
42
0.41421356237309503
0
LWPOLYLINE
5
143
100
AcDbEntity
8
0
100
AcDbPolyline
90
8
70
1
43
0.0
10
-28.428749999999997
20
47.240000000000052
10
-41.428750000000065
20
47.240000000000066
42
0.41421356237309503
10
-41.928750000000051
20
46.740000000000066
10
-41.928750000000043
20
33.740000000000002
42
0.41421356237309503
10
-41.428750000000043
20
33.240000000000002
10
-28.428750000000001
20
33.240000000000009
42
0.41421356237309503
10
-27.928750000000001
20
33.740000000000009
10
-27.928750000000001
20
46.740000000000052
42
0.41421356237309503
0
LWPOLYLINE
5
144
100
AcDbEntity
8
0
100
AcDbPolyline
90
8
70
1
43
0.0
10
-43.609999999999985
20
27.690000000000055
10
-43.609999999999985
20
14.690000000000047
42
0.41421356237309503
10
-43.109999999999992
20
14.190000000000047
10
-30.109999999999975
20
14.190000000000007
42
0.41421356237309503
10
-29.609999999999971
20
14.690000000000008
10
-29.609999999999964
20
27.690000000000062
42
0.41421356237309503
10
-30.10999999999996
20
28.190000000000058
10
-43.109999999999999
20
28.190000000000055
42
0.41421356237309503
0
LWPOLYLINE
5
145
100
AcDbEntity
8
0
100
AcDbPolyline
90
8
70
1
43
0.0
10
-20.589999999999993
20
25.550000000000107
10
-20.589999999999989
20
12.550000000000107
42
0.41421356237309503
10
-20.089999999999989
20
12.050000000000107
10
-7.0900000000000283
20
12.050000000000107
42
0.41421356237309503
10
-6.5900000000000283
20
12.550000000000107
10
-6.5900000000000531
20
25.550000000000111
42
0.41421356237309503
10
-7.090000000000054
20
26.050000000000111
10
-20.09
20
26.050000000000107
42
0.41421356237309503
0
CIRCLE
5
146
100
AcDbEntity
8
0
100
AcDbCircle
10
-254.14500000000004
20
12.89483870204776
30
0
40
1.7500000000000071
210
0
220
0
230
1
0
CIRCLE
5
147
100
AcDbEntity
8
0
100
AcDbCircle
10
-46.135000000000005
20
12.940000000000008
30
0
40
1.749999999999998
210
0
220
0
230
1
0
CIRCLE
5
148
100
AcDbEntity
8
0
100
AcDbCircle
10
-194.37416085978501
20
20.461358859063772
30
0
40
1.7500000000000071
210
0
220
0
230
1
0
CIRCLE
5
149
100
AcDbEntity
8
0
100
AcDbCircle
10
-105.82583914021498
20
18.481358859063668
30
0
40
1.7500000000000071
210
0
220
0
230
1
0
CIRCLE
5
150
100
AcDbEntity
8
0
100
AcDbCircle
10
-296.16250000000025
20
21.836957256448958
30
0
40
1.0999999999999943
210
0
220
0
230
1
0
CIRCLE
5
151
100
AcDbEntity
8
0
100
AcDbCircle
10
-114.75499999929006
20
12.749407084484307
30
0
40
1.0999999999999943
210
0
220
0
230
1
0
CIRCLE
5
152
100
AcDbEntity
8
0
100
AcDbCircle
10
-55.63993449129525
20
81.340000000002831
30
0
40
1.1000000000000032
210
0
220
0
230
1
0
CIRCLE
5
153
100
AcDbEntity
8
0
100
AcDbCircle
10
-194.75499999929008
20
12.749407084484325
30
0
40
1.0999999999999943
210
0
220
0
230
1
0
CIRCLE
5
154
100
AcDbEntity
8
0
100
AcDbCircle
10
-154.75499999929036
20
94.640288866907383
30
0
40
1.0999999999999943
210
0
220
0
230
1
0
CIRCLE
5
155
100
AcDbEntity
8
0
100
AcDbCircle
10
-4.0200000000000715
20
52.836957256448969
30
0
40
1.1000000000000005
210
0
220
0
230
1
0
CIRCLE
5
156
100
AcDbEntity
8
0
100
AcDbCircle
10
-257.29219955143481
20
81.339999995928082
30
0
40
1.0999999999999943
210
0
220
0
230
1
0
LWPOLYLINE
5
157
100
AcDbEntity
8
0
100
AcDbPolyline
90
15
70
1
43
0.0
10
-99.725662549267398
20
90.182700912390899
42
-0.41421355947752553
10
-100.11078050423498
20
90.775730553992929
42
0.4142135623714257
10
-100.49589845919354
20
91.368760199765973
10
-115.5410316116339
20
94.566701972517649
42
0.41421377513141378
10
-116.13406133292337
20
94.181583662295324
10
-118.83690407668308
20
81.465662889398217
42
0.41421334961482065
10
-118.45178604621147
20
80.872633598886736
10
-104.32930905889503
20
77.870808448197891
42
-0.4142135616408622
10
-103.94419110367716
20
77.277778803644708
10
-104.15210279256956
20
76.299631199945509
42
0.41421356164091921
10
-103.76698483735167
20
75.706601555392311
10
-97.898099232948823
20
74.459131410485767
42
0.41421356310527091
10
-97.305069586913163
20
74.844249366666389
10
-94.394305950652395
20
88.538315779722126
42
0.41421356113804891
10
-94.779423905030612
20
89.131345424096807
0
LWPOLYLINE
5
158
100
AcDbEntity
8
0
100
AcDbPolyline
90
26
70
1
43
0.0
10
-294.19424999502183
20
66.790000091689862
42
-0.41421356246421215
10
-294.69424999517742
20
66.290000091689862
10
-297.16249999984439
20
66.290000092457831
42
0.4142135624642278
10
-297.66250000000002
20
65.790000092457831
10
-297.66250000000002
20
52.789999999999999
42
0.41421356237309503
10
-297.16249999999997
20
52.290000000000049
10
-262.73125000000056
20
52.289999999999964
42
0.41421356237309503
10
-262.23125000000061
20
52.789999999999964
10
-262.23125000000061
20
65.789999999999822
42
0.41421356237309503
10
-262.73125000000061
20
66.289999999999822
10
-262.81824999999935
20
66.289999999999793
42
-0.4142135623730222
10
-263.31824999999935
20
66.789999999999822
10
-263.31824999999935
20
67.790000000045978
42
0.41421356237309503
10
-263.81824999999935
20
68.290000000045978
10
-269.81824999999935
20
68.290000000045993
42
0.41421356237309503
10
-270.31824999999935
20
67.790000000045993
10
-270.3182499999993
20
66.789999999999822
42
-0.41421356237307422
10
-270.81824999999935
20
66.289999999999822
10
-275.2312500000001
20
66.290000000000362
10
-284.66249999968767
20
66.290000088568618
10
-286.69424999517742
20
66.29000008920076
42
-0.41421356228196227
10
-287.19424999502183
20
66.790000089200774
10
-287.19424999502183
20
67.789999999556414
42
0.41421356237309503
10
-287.69424999502183
20
68.289999999556414
10
-293.69424999502183
20
68.2899999995564
42
0.41421356237309503
10
-294.19424999502183
20
67.789999999556414
0
ARC
5
159
100
AcDbEntity
8
0
100
AcDbCircle
10
-125.1663422795727
20
7.936907084484436
30
0
40
0.81250000000002487
210
0
220
0
230
1
100
AcDbArc
50
180
51
269.99999999999898
0
LINE
5
160
100
AcDbEntity
8
0
100
AcDbLine
10
-125.16634227957272
20
7.1244070844844112
30
0
11
-106.41634227957272
21
7.1244070844843677
31
0
0
ARC
5
161
100
AcDbEntity
8
0
100
AcDbCircle
10
-106.41634227957272
20
6.686907084484317
30
0
40
0.43749999999999956
210
-0
220
0
230
1
100
AcDbArc
50
-90
51
90
0
LINE
5
162
100
AcDbEntity
8
0
100
AcDbLine
10
-106.41634227957272
20
6.2494070844843179
30
0
11
-134.97884227957272
21
6.2494070844843197
31
0
0
ARC
5
163
100
AcDbEntity
8
0
100
AcDbCircle
10
-134.97884227957272
20
5.2494070844843232
30
0
40
0.99999999999999645
210
0
220
-0
230
1
100
AcDbArc
50
90
51
180
0
LINE
5
164
100
AcDbEntity
8
0
100
AcDbLine
10
-135.97884227957272
20
5.2494070844843179
30
0
11
-135.97884227957272
21
3.7494070844843153
31
0
0
ARC
5
165
100
AcDbEntity
8
0
100
AcDbCircle
10
-134.97884227957272
20
3.7494070844843099
30
0
40
0.99999999999999645
210
0
220
0
230
1
100
AcDbArc
50
180
51
270
0
LINE
5
166
100
AcDbEntity
8
0
100
AcDbLine
10
-134.97884227957272
20
2.7494070844843135
30
0
11
-86.978842279572717
21
2.7494070844843153
31
0
0
ARC
5
167
100
AcDbEntity
8
0
100
AcDbCircle
10
-86.978842279572717
20
3.749407084484309
30
0
40
0.99999999999999367
210
0
220
0
230
1
100
AcDbArc
50
-90
51
0
0
LINE
5
168
100
AcDbEntity
8
0
100
AcDbLine
10
-85.978842279572717
20
3.7494070844843153
30
0
11
-85.978842279572717
21
7.8744070844843339
31
0
0
ARC
5
169
100
AcDbEntity
8
0
100
AcDbCircle
10
-86.978842279572717
20
7.8744070844843392
30
0
40
0.99999999999999645
210
0
220
0
230
1
100
AcDbArc
50
0
51
90
0
LINE
5
170
100
AcDbEntity
8
0
100
AcDbLine
10
-86.978842279572717
20
8.8744070844843357
30
0
11
-115.54134227957275
21
8.8744070844843339
31
0
0
ARC
5
171
100
AcDbEntity
8
0
100
AcDbCircle
10
-115.54134227957275
20
9.3119070844843055
30
0
40
0.43749999999999956
210
0
220
-0
230
1
100
AcDbArc
50
90
51
270
0
LINE
5
172
100
AcDbEntity
8
0
100
AcDbLine
10
-115.54134227957275
20
9.7494070844843055
30
0
11
-86.488209514044343
21
9.7494070844843073
31
0
0
ARC
5
173
100
AcDbEntity
8
0
100
AcDbCircle
10
-86.488209514044371
20
10.749407084484305
30
0
40
0.99999999999999867
210
0
220
0
230
1
100
AcDbArc
50
270.00000000000159
51
335.67447048294736
0
ARC
5
174
100
AcDbEntity
8
0
100
AcDbCircle
10
-82.478842279572703
20
8.9369572564489914
30
0
40
3.3999999999999941
210
0
220
-0
230
1
100
AcDbArc
50
10.640592550429137
51
155.6744704829473
0
ARC
5
175
100
AcDbEntity
8
0
100
AcDbCircle
10
-78.154501257298307
20
9.7494070844842824
30
0
40
0.99999999999997691
210
0
220
0
230
1
100
AcDbArc
50
190.64059255042838
51
270.00000000000159
0
LINE
5
176
100
AcDbEntity
8
0
100
AcDbLine
10
-78.154501257298278
20
8.7494070844842966
30
0
11
-60.685258607124197
21
8.7494070844842966
31
0
0
ARC
5
177
100
AcDbEntity
8
0
100
AcDbCircle
10
-60.685258607124183
20
9.7494070844842931
30
0
40
0.99999999999999645
210
0
220
0
230
1
100
AcDbArc
50
269.9999999999992
51
299.54136050014284
0
ARC
5
178
100
AcDbEntity
8
0
100
AcDbCircle
10
-58.219999999999956
20
5.3994070844843423
30
0
40
3.9999999999999716
210
0
220
0
230
1
100
AcDbArc
50
110.64967148362837
51
119.54136050014334
0
LINE
5
179
100
AcDbEntity
8
0
100
AcDbLine
10
-59.630612060214602
20
9.1424237309309966
30
0
11
-58.105237199274924
21
9.7172841652901205
31
0
0
ARC
5
180
100
AcDbEntity
8
0
100
AcDbCircle
10
-57.928910691748101
20
9.2494070844842895
30
0
40
0.50000000000000044
210
0
220
-0
230
1
100
AcDbArc
50
90
51
110.64967148362761
0
LINE
5
181
100
AcDbEntity
8
0
100
AcDbLine
10
-57.928910691748101
20
9.7494070844842913
30
0
11
-30.537499999999991
21
9.7494070844842877
31
0
0
ARC
5
182
100
AcDbEntity
8
0
100
AcDbCircle
10
-30.53749999999998
20
9.3119070844842913
30
0
40
0.43750000000000067
210
-0
220
0
230
1
100
AcDbArc
50
-90
51
90.000000000001393
0
LINE
5
183
100
AcDbEntity
8
0
100
AcDbLine
10
-30.53749999999998
20
8.8744070844842895
30
0
11
-56.019999999999953
21
8.8744070844842913
31
0
0
ARC
5
184
100
AcDbEntity
8
0
100
AcDbCircle
10
-56.019999999999953
20
7.8744070844842931
30
0
40
0.99999999999999867
210
0
220
-0
230
1
100
AcDbArc
50
90
51
180
0
LINE
5
185
100
AcDbEntity
8
0
100
AcDbLine
10
-57.019999999999946
20
7.8744070844842913
30
0
11
-57.019999999999946
21
7.232437362466662
31
0
0
ARC
5
186
100
AcDbEntity
8
0
100
AcDbCircle
10
-56.519999999999996
20
7.2324373624666389
30
0
40
0.49999999999995381
210
0
220
0
230
1
100
AcDbArc
50
180
51
227.15635695640654
0
ARC
5
187
100
AcDbEntity
8
0
100
AcDbCircle
10
-58.219999999999956
20
5.3994070844843423
30
0
40
2.0000000000000222
210
-0
220
0
230
1
100
AcDbArc
50
-46.342769712476304
51
47.156356956403002
0
ARC
5
188
100
AcDbEntity
8
0
100
AcDbCircle
10
-56.494143640775832
20
3.5907004119346486
30
0
40
0.50000000000000344
210
0
220
0
230
1
100
AcDbArc
50
133.65723028752421
51
198.50656687498011
0
ARC
5
189
100
AcDbEntity
8
0
100
AcDbCircle
10
-56.019999999999953
20
3.7494070844843224
30
0
40
1.0000000000000056
210
0
220
0
230
1
100
AcDbArc
50
198.50656687498076
51
270
0
LINE
5
190
100
AcDbEntity
8
0
100
AcDbLine
10
-56.019999999999953
20
2.749407084484317
30
0
11
-8.0199999999999427
21
2.7494070844843166
31
0
0
ARC
5
191
100
AcDbEntity
8
0
100
AcDbCircle
10
-8.0199999999999463
20
3.7494070844843153
30
0
40
0.99999999999999867
210
0
220
0
230
1
100
AcDbArc
50
-89.999999999999801
51
0
0
LINE
5
192
100
AcDbEntity
8
0
100
AcDbLine
10
-7.0199999999999472
20
3.7494070844843161
30
0
11
-7.0199999999999463
21
5.2494070844843179
31
0
0
ARC
5
193
100
AcDbEntity
8
0
100
AcDbCircle
10
-8.0199999999999427
20
5.2494070844843197
30
0
40
0.99999999999999645
210
0
220
0
230
1
100
AcDbArc
50
0
51
90
0
LINE
5
194
100
AcDbEntity
8
0
100
AcDbLine
10
-8.0199999999999427
20
6.2494070844843179
30
0
11
-41.662499999999973
21
6.2494070844843197
31
0
0
ARC
5
195
100
AcDbEntity
8
0
100
AcDbCircle
10
-41.662499999999973
20
6.6869070844842913
30
0
40
0.43749999999999956
210
0
220
-0
230
1
100
AcDbArc
50
90
51
270
0
LINE
5
196
100
AcDbEntity
8
0
100
AcDbLine
10
-41.662499999999973
20
7.1244070844842913
30
0
11
-20.912499999999973
21
7.1244070844842913
31
0
0
ARC
5
197
100
AcDbEntity
8
0
100
AcDbCircle
10
-20.912499999999973
20
7.9369070844842895
30
0
40
0.81249999999999822
210
0
220
0
230
1
100
AcDbArc
50
-90
51
0
0
ARC
5
198
100
AcDbEntity
8
0
100
AcDbCircle
10
-19.287499999999977
20
7.9369070844844005
30
0
40
0.81249999999999933
210
0
220
0
230
1
100
AcDbArc
50
90
51
180
0
LINE
5
199
100
AcDbEntity
8
0
100
AcDbLine
10
-19.287499999999977
20
8.7494070844843996
30
0
11
-4.8943410222743289
21
8.7494070844844245
31
0
0
ARC
5
200
100
AcDbEntity
8
0
100
AcDbCircle
10
-4.8943410222743307
20
9.7494070844844263
30
0
40
1.0000000000000009
210
0
220
0
230
1
100
AcDbArc
50
270.00000000000011
51
349.35940744956883
0
ARC
5
201
100
AcDbEntity
8
0
100
AcDbCircle
10
-0.56999999999993223
20
8.9369572564489648
30
0
40
3.4000000000000137
210
0
220
0
230
1
100
AcDbArc
50
95.215908570454289
51
169.35940744956886
0
ARC
5
202
100
AcDbEntity
8
0
100
AcDbCircle
10
-0.96999999999995812
20
13.318737716490297
30
0
40
0.99999999999999134
210
0
220
0
230
1
100
AcDbArc
50
275.21590857045504
51
360
0
LINE
5
203
100
AcDbEntity
8
0
100
AcDbLine
10
0.030000000000043464
20
13.318737716490293
30
0
11
0.030000000000036664
21
87.340000000001538
31
0
0
ARC
5
204
100
AcDbEntity
8
0
100
AcDbCircle
10
-0.96999999999993769
20
87.340000000001567
30
0
40
0.99999999999997435
210
0
220
0
230
1
100
AcDbArc
50
0
51
89.999999999999815
0
LINE
5
205
100
AcDbEntity
8
0
100
AcDbLine
10
-0.96999999999993447
20
88.340000000001538
30
0
11
-16.207499999999971
21
88.340000000001893
31
0
0
ARC
5
206
100
AcDbEntity
8
0
100
AcDbCircle
10
-16.207499999999953
20
89.152500000001908
30
0
40
0.81250000000000044
210
0
220
0
230
1
100
AcDbArc
50
180
51
269.99999999999875
0
ARC
5
207
100
AcDbEntity
8
0
100
AcDbCircle
10
-17.83249999999995
20
89.152500000001538
30
0
40
0.81249999999999822
210
0
220
0
230
1
100
AcDbArc
50
0
51
90.000000000000256
0
LINE
5
208
100
AcDbEntity
8
0
100
AcDbLine
10
-17.832499999999953
20
89.965000000001538
30
0
11
-38.582499999999953
21
89.965000000001524
31
0
0
ARC
5
209
100
AcDbEntity
8
0
100
AcDbCircle
10
-38.582499999999953
20
90.402500000001652
30
0
40
0.43749999999999289
210
0
220
-0
230
1
100
AcDbArc
50
90
51
270
0
LINE
5
210
100
AcDbEntity
8
0
100
AcDbLine
10
-38.582499999999953
20
90.840000000001652
30
0
11
-8.0199999999999427
21
90.840000000001652
31
0
0
ARC
5
211
100
AcDbEntity
8
0
100
AcDbCircle
10
-8.0199999999999374
20
91.840000000001652
30
0
40
0.99999999999999645
210
0
220
0
230
1
100
AcDbArc
50
-90.000000000000313
51
0
0
LINE
5
212
100
AcDbEntity
8
0
100
AcDbLine
10
-7.019999999999941
20
91.840000000001652
30
0
11
-7.0199999999999463
21
93.340000000001481
31
0
0
ARC
5
213
100
AcDbEntity
8
0
100
AcDbCircle
10
-8.0199999999999374
20
93.340000000001481
30
0
40
0.9999999999999909
210
0
220
0
230
1
100
AcDbArc
50
0
51
90.000000000000313
0
LINE
5
214
100
AcDbEntity
8
0
100
AcDbLine
10
-8.0199999999999427
20
94.340000000001481
30
0
11
-56.019999999999953
21
94.34000000000151
31
0
0
ARC
5
215
100
AcDbEntity
8
0
100
AcDbCircle
10
-56.019999999999968
20
93.340000000001524
30
0
40
0.99999999999997868
210
0
220
-0
230
1
100
AcDbArc
50
89.99999999999919
51
161.49343312503424
0
ARC
5
216
100
AcDbEntity
8
0
100
AcDbCircle
10
-56.494143640775889
20
93.498706672551037
30
0
40
0.4999999999999909
210
0
220
0
230
1
100
AcDbArc
50
161.49343312503095
51
226.34276971247934
0
ARC
5
217
100
AcDbEntity
8
0
100
AcDbCircle
10
-58.219999999999942
20
91.690000000001334
30
0
40
1.9999999999999909
210
0
220
0
230
1
100
AcDbArc
50
-47.156356956403954
51
46.342769712477093
0
ARC
5
218
100
AcDbEntity
8
0
100
AcDbCircle
10
-56.519999999999925
20
89.856969722018988
30
0
40
0.50000000000003308
210
0
220
0
230
1
100
AcDbArc
50
132.84364304359818
51
180
0
LINE
5
219
100
AcDbEntity
8
0
100
AcDbLine
10
-57.019999999999946
20
89.856969722019002
30
0
11
-57.019999999999946
21
89.21500000000151
31
0
0
ARC
5
220
100
AcDbEntity
8
0
100
AcDbCircle
10
-56.01999999999996
20
89.21500000000151
30
0
40
0.99999999999998757
210
0
220
0
230
1
100
AcDbArc
50
180
51
270.0000000000004
0
LINE
5
221
100
AcDbEntity
8
0
100
AcDbLine
10
-56.019999999999953
20
88.215000000001538
30
0
11
-27.457499999999957
21
88.21500000000151
31
0
0
ARC
5
222
100
AcDbEntity
8
0
100
AcDbCircle
10
-27.457499999999957
20
87.777500000001424
30
0
40
0.43749999999999289
210
-0
220
0
230
1
100
AcDbArc
50
-90
51
90
0
LINE
5
223
100
AcDbEntity
8
0
100
AcDbLine
10
-27.457499999999957
20
87.340000000001439
30
0
11
-57.9289106917482
21
87.34000000000168
31
0
0
ARC
5
224
100
AcDbEntity
8
0
100
AcDbCircle
10
-57.928910691748186
20
87.840000000001709
30
0
40
0.49999999999999611
210
0
220
0
230
1
100
AcDbArc
50
249.3503285163813
51
269.99999999999835
0
LINE
5
225
100
AcDbEntity
8
0
100
AcDbLine
10
-58.105237199274939
20
87.372122919195846
30
0
11
-59.630612060225104
21
87.946983353558622
31
0
0
ARC
5
226
100
AcDbEntity
8
0
100
AcDbCircle
10
-58.219999999999942
20
91.690000000001334
30
0
40
3.9999999999999947
210
0
220
0
230
1
100
AcDbArc
50
240.4586394998199
51
249.35032851621079
0
ARC
5
227
100
AcDbEntity
8
0
100
AcDbCircle
10
-60.685258607126933
20
87.34000000000313
30
0
40
0.99999999999982125
210
0
220
-0
230
1
100
AcDbArc
50
60.458639499817075
51
90.000000000001634
0
LINE
5
228
100
AcDbEntity
8
0
100
AcDbLine
10
-60.685258607126961
20
88.340000000002945
30
0
11
-64.482278138396694
21
88.340000000003045
31
0
0
ARC
5
229
100
AcDbEntity
8
0
100
AcDbCircle
10
-64.482278138396666
20
89.34000000000303
30
0
40
0.99999999999999734
210
0
220
0
230
1
100
AcDbArc
50
257.99999999999881
51
269.99999999999835
0
LINE
5
230
100
AcDbEntity
8
0
100
AcDbLine
10
-64.690189829214447
20
88.361852399269225
30
0
11
-83.661260587971327
21
92.394277970949346
31
0
0
ARC
5
231
100
AcDbEntity
8
0
100
AcDbCircle
10
-83.765216433380203
20
91.905204170582437
30
0
40
0.50000000000001321
210
0
220
-0
230
1
100
AcDbArc
50
78.000000000000554
51
167.99999999999866
0
ARC
5
232
100
AcDbEntity
8
0
100
AcDbCircle
10
-84.743364034113995
20
92.113115861400246
30
0
40
0.49999999999999589
210
0
220
0
230
1
100
AcDbArc
50
258.00000000000051
51
347.99999999999551
0
LINE
5
233
100
AcDbEntity
8
0
100
AcDbLine
10
-84.847319879522871
20
91.624042061033336
30
0
11
-115.94670710688129
21
98.234420880125242
31
0
0
ARC
5
234
100
AcDbEntity
8
0
100
AcDbCircle
10
-115.85574574214834
20
98.662360455447086
30
0
40
0.43749999999999351
210
0
220
-0
230
1
100
AcDbArc
50
77.999999999998465
51
257.99999999999903
0
LINE
5
235
100
AcDbEntity
8
0
100
AcDbLine
10
-115.76478437741557
20
99.090300030768105
30
0
11
-86.132618551158316
21
92.791788747901876
31
0
0
ARC
5
236
100
AcDbEntity
8
0
100
AcDbCircle
10
-85.924706860340535
20
93.769936348635682
30
0
40
1.0000000000000164
210
0
220
0
230
1
100
AcDbArc
50
257.99999999999881
51
347.99999999999818
0
LINE
5
237
100
AcDbEntity
8
0
100
AcDbLine
10
-84.946559259606715
20
93.562024657817886
30
0
11
-84.088923534983422
21
97.596883510845117
31
0
0
ARC
5
238
100
AcDbEntity
8
0
100
AcDbCircle
10
-85.0670711357172
20
97.804795201662884
30
0
40
0.99999999999997813
210
0
220
0
230
1
100
AcDbArc
50
-12.000000000000728
51
78.000000000000853
0
LINE
5
239
100
AcDbEntity
8
0
100
AcDbLine
10
-84.859159444899461
20
98.782942802396661
30
0
11
-131.81024428012216
21
108.76270396164909
31
0
0
ARC
5
240
100
AcDbEntity
8
0
100
AcDbCircle
10
-132.01815597093992
20
107.78455636091533
30
0
40
0.9999999999999607
210
0
220
-0
230
1
100
AcDbArc
50
77.999999999999886
51
168.00000000000179
0
LINE
5
241
100
AcDbEntity
8
0
100
AcDbLine
10
-132.99630357167371
20
107.99246805173306
30
0
11
-133.30817110790042
21
106.5252466506319
31
0
0
ARC
5
242
100
AcDbEntity
8
0
100
AcDbCircle
10
-132.33002350716666
20
106.31733495981413
30
0
40
0.99999999999997813
210
0
220
0
230
1
100
AcDbArc
50
167.99999999999909
51
258.00000000000182
0
LINE
5
243
100
AcDbEntity
8
0
100
AcDbLine
10
-132.53793519798438
20
105.33918735908034
30
0
11
-106.29341933232324
21
99.760743303981272
31
0
0
ARC
5
244
100
AcDbEntity
8
0
100
AcDbCircle
10
-106.38438069705585
20
99.332803728660949
30
0
40
0.43749999999999351
210
0
220
0
230
1
100
AcDbArc
50
-102.00000000000153
51
78.00000000000135
0
LINE
5
245
100
AcDbEntity
8
0
100
AcDbLine
10
-106.47534206178862
20
98.904864153339929
30
0
11
-124.81560957554728
21
102.80320835617358
31
0
0
ARC
5
246
100
AcDbEntity
8
0
100
AcDbCircle
10
-124.98453782433673
20
102.00846343057734
30
0
40
0.81250000000002942
210
0
220
-0
230
1
100
AcDbArc
50
77.999999999999616
51
167.99999999999886
0
ARC
5
247
100
AcDbEntity
8
0
100
AcDbCircle
10
-126.57402767552939
20
102.3463199281551
30
0
40
0.81249999999999101
210
0
220
0
230
1
100
AcDbArc
50
257.99999999999994
51
348.00000000008032
0
LINE
5
248
100
AcDbEntity
8
0
100
AcDbLine
10
-126.74295592431882
20
101.55157500255889
30
0
11
-145.87603482402176
21
105.61843646764103
31
0
0
ARC
5
249
100
AcDbEntity
8
0
100
AcDbCircle
10
-146.0839465148394
20
104.64028886690755
30
0
40
0.99999999999966049
210
0
220
-0
230
1
100
AcDbArc
50
78.000000000002856
51
90.000000000004889
0
LINE
5
250
100
AcDbEntity
8
0
100
AcDbLine
10
-146.08394651483948
20
105.64028886690724
30
0
11
-163.42605348373354
21
105.6402888669075
31
0
0
ARC
5
251
100
AcDbEntity
8
0
100
AcDbCircle
10
-163.42605348373348
20
104.64028886690663
30
0
40
1.0000000000008669
210
0
220
0
230
1
100
AcDbArc
50
90.000000000003254
51
101.99999999977803
0
LINE
5
252
100
AcDbEntity
8
0
100
AcDbLine
10
-163.63396517454763
20
105.61843646764206
30
0
11
-188.37025233857872
21
100.36057631966995
31
0
0
ARC
5
253
100
AcDbEntity
8
0
100
AcDbCircle
10
-188.53918058736528
20
101.1553212452674
30
0
40
0.81249999999998823
210
0
220
0
230
1
100
AcDbArc
50
192.00000000504065
51
281.99999999978371
0
ARC
5
254
100
AcDbEntity
8
0
100
AcDbCircle
10
-190.12867043854277
20
100.81746474761864
30
0
40
0.81249999999993516
210
0
220
-0
230
1
100
AcDbArc
50
11.999999999999865
51
101.99999999978976
0
LINE
5
255
100
AcDbEntity
8
0
100
AcDbLine
10
-190.29759868732927
20
101.61220967321542
30
0
11
-208.63786620110574
21
97.713865470450344
31
0
0
ARC
5
256
100
AcDbEntity
8
0
100
AcDbCircle
10
-208.72882756585318
20
98.141805045848173
30
0
40
0.43750000000000128
210
0
220
0
230
1
100
AcDbArc
50
101.99999999978435
51
281.99999999978877
0
LINE
5
257
100
AcDbEntity
8
0
100
AcDbLine
10
-208.81978893058434
20
98.569744621169548
30
0
11
-176.97206482121558
21
105.33918735474711
31
0
0
ARC
5
258
100
AcDbEntity
8
0
100
AcDbCircle
10
-177.17997651202964
20
106.31733495548173
30
0
40
1.0000000000000226
210
0
220
0
230
1
100
AcDbArc
50
-78.000000000217128
51
11.999999999785972
0
LINE
5
259
100
AcDbEntity
8
0
100
AcDbLine
10
-176.20182891129508
20
106.52524664629583
30
0
11
-176.51369644751622
21
107.99246804739772
31
0
0
ARC
5
260
100
AcDbEntity
8
0
100
AcDbCircle
10
-177.49184404825081
20
107.78455635658369
30
0
40
0.99999999999998068
210
0
220
-0
230
1
100
AcDbArc
50
11.999999999781659
51
101.99999999978517
0
LINE
5
261
100
AcDbEntity
8
0
100
AcDbLine
10
-177.6997557390649
20
108.76270395731825
30
0
11
-224.65084057432517
21
98.782942798242445
31
0
0
ARC
5
262
100
AcDbEntity
8
0
100
AcDbCircle
10
-224.44292888351106
20
97.804795197507858
30
0
40
0.99999999999999545
210
0
220
0
230
1
100
AcDbArc
50
101.99999999978643
51
191.99999999978559
0
LINE
5
263
100
AcDbEntity
8
0
100
AcDbLine
10
-225.42107648424565
20
97.596883506693757
30
0
11
-224.5634407596213
21
93.56202465358723
31
0
0
ARC
5
264
100
AcDbEntity
8
0
100
AcDbCircle
10
-223.58529315888674
20
93.769936344401245
30
0
40
0.99999999999994216
210
0
220
0
230
1
100
AcDbArc
50
191.99999999978118
51
281.99999999978337
0
LINE
5
265
100
AcDbEntity
8
0
100
AcDbLine
10
-223.37738146807268
20
92.791788743666672
30
0
11
-199.34842388547145
21
97.899301347843618
31
0
0
ARC
5
266
100
AcDbEntity
8
0
100
AcDbCircle
10
-199.25746252075675
20
97.471361772599693
30
0
40
0.43750000000000128
210
-0
220
0
230
1
100
AcDbArc
50
-78.000000000219316
51
101.99999999978513
0
LINE
5
267
100
AcDbEntity
8
0
100
AcDbLine
10
-199.16650115602562
20
97.043422197278318
30
0
11
-224.66268013972842
21
91.624042056879262
31
0
0
ARC
5
268
100
AcDbEntity
8
0
100
AcDbCircle
10
-224.76663598513545
20
92.113115857246527
30
0
40
0.500000000000004
210
0
220
0
230
1
100
AcDbArc
50
191.99999999977774
51
281.99999999978388
0
ARC
5
269
100
AcDbEntity
8
0
100
AcDbCircle
10
-225.7447835858701
20
91.905204166432384
30
0
40
0.50000000000003719
210
0
220
-0
230
1
100
AcDbArc
50
11.999999999796895
51
101.99999999978256
0
LINE
5
270
100
AcDbEntity
8
0
100
AcDbLine
10
-225.84873943127712
20
92.394277966799706
30
0
11
-241.75935524631981
21
89.012372175164117
31
0
0
ARC
5
271
100
AcDbEntity
8
0
100
AcDbCircle
10
-241.55144355550584
20
88.034224574429572
30
0
40
0.9999999999999386
210
0
220
0
230
1
100
AcDbArc
50
101.99999999977896
51
133.01668355596138
0
ARC
5
272
100
AcDbEntity
8
0
100
AcDbCircle
10
-244.96250000000128
20
91.689999995932283
30
0
40
3.9999999999998295
210
0
220
0
230
1
100
AcDbArc
50
290.64967148385188
51
313.0166835559653
0
LINE
5
273
100
AcDbEntity
8
0
100
AcDbLine
10
-243.55188793977209
20
87.946983349491262
30
0
11
-245.07726280072572
21
87.372122915120087
31
0
0
ARC
5
274
100
AcDbEntity
8
0
100
AcDbCircle
10
-245.25358930825436
20
87.83999999592524
30
0
40
0.50000000000000711
210
-0
220
0
230
1
100
AcDbArc
50
270
51
290.64967148385011
0
LINE
5
275
100
AcDbEntity
8
0
100
AcDbLine
10
-245.25358930825436
20
87.33999999592524
30
0
11
-263.72500000000156
21
87.339999995933354
31
0
0
ARC
5
276
100
AcDbEntity
8
0
100
AcDbCircle
10
-263.72500000000156
20
87.77749999592524
30
0
40
0.43749999999999289
210
0
220
-0
230
1
100
AcDbArc
50
90
51
270
0
LINE
5
277
100
AcDbEntity
8
0
100
AcDbLine
10
-263.72500000000156
20
88.21499999592524
30
0
11
-247.1625000000015
21
88.21499999592524
31
0
0
ARC
5
278
100
AcDbEntity
8
0
100
AcDbCircle
10
-247.16250000000147
20
89.21499999592524
30
0
40
0.99999999999999645
210
0
220
0
230
1
100
AcDbArc
50
-90.000000000001634
51
0
0
LINE
5
279
100
AcDbEntity
8
0
100
AcDbLine
10
-246.1625000000015
20
89.21499999592524
30
0
11
-246.16250000000153
21
89.856969717950165
31
0
0
ARC
5
280
100
AcDbEntity
8
0
100
AcDbCircle
10
-246.66250000000167
20
89.856969717950108
30
0
40
0.50000000000014921
210
0
220
-0
230
1
100
AcDbArc
50
0
51
47.156356956394461
0
ARC
5
281
100
AcDbEntity
8
0
100
AcDbCircle
10
-244.96250000000128
20
91.689999995932283
30
0
40
2.0000000000003078
210
0
220
0
230
1
100
AcDbArc
50
133.65723028752717
51
227.15635695639469
0
ARC
5
282
100
AcDbEntity
8
0
100
AcDbCircle
10
-246.68835635922579
20
93.498706668482114
30
0
40
0.5000000000000886
210
0
220
0
230
1
100
AcDbArc
50
-46.342769712468822
51
18.50656687498245
0
ARC
5
283
100
AcDbEntity
8
0
100
AcDbCircle
10
-247.16250000000156
20
93.339999995932388
30
0
40
0.99999999999997657
210
0
220
-0
230
1
100
AcDbArc
50
18.506566874986859
51
90
0
LINE
5
284
100
AcDbEntity
8
0
100
AcDbLine
10
-247.16250000000156
20
94.339999995932345
30
0
11
-295.1625000000015
21
94.339999995932345
31
0
0
ARC
5
285
100
AcDbEntity
8
0
100
AcDbCircle
10
-295.1625000000015
20
93.339999995932317
30
0
40
1.000000000000032
210
0
220
0
230
1
100
AcDbArc
50
90
51
180
0
LINE
5
286
100
AcDbEntity
8
0
100
AcDbLine
10
-296.1625000000015
20
93.339999995932345
30
0
11
-296.16250000000156
21
91.83999999593334
31
0
0
ARC
5
287
100
AcDbEntity
8
0
100
AcDbCircle
10
-295.16250000000156
20
91.839999995933368
30
0
40
0.99999999999997868
210
0
220
0
230
1
100
AcDbArc
50
180
51
270
0
LINE
5
288
100
AcDbEntity
8
0
100
AcDbLine
10
-295.16250000000156
20
90.83999999593334
30
0
11
-254.6000000000015
21
90.83999999593334
31
0
0
ARC
5
289
100
AcDbEntity
8
0
100
AcDbCircle
10
-254.60000000000156
20
90.40249999592524
30
0
40
0.43749999999999289
210
-0
220
0
230
1
100
AcDbArc
50
-90
51
89.999999999992568
0
LINE
5
290
100
AcDbEntity
8
0
100
AcDbLine
10
-254.60000000000156
20
89.96499999592524
30
0
11
-273.35000000000156
21
89.96499999592524
31
0
0
ARC
5
291
100
AcDbEntity
8
0
100
AcDbCircle
10
-273.35000000000156
20
89.152499995925211
30
0
40
0.81250000000002487
210
0
220
0
230
1
100
AcDbArc
50
90
51
180
0
ARC
5
292
100
AcDbEntity
8
0
100
AcDbCircle
10
-274.97500000000161
20
89.152499995929176
30
0
40
0.81250000000000711
210
0
220
0
230
1
100
AcDbArc
50
269.99999999998397
51
360
0
LINE
5
293
100
AcDbEntity
8
0
100
AcDbLine
10
-274.97500000000184
20
88.339999995929176
30
0
11
-299.2124999999009
21
88.339999995937774
31
0
0
ARC
5
294
100
AcDbEntity
8
0
100
AcDbCircle
10
-299.21249999990124
20
87.339999995937774
30
0
40
0.99999999999999645
210
0
220
-0
230
1
100
AcDbArc
50
89.99999999998046
51
180
0
LINE
5
295
100
AcDbEntity
8
0
100
AcDbLine
10
-300.21249999990124
20
87.33999999593911
30
0
11
-300.21249999999873
21
13.318737716491196
31
0
0
ARC
5
296
100
AcDbEntity
8
0
100
AcDbCircle
10
-299.21249999999878
20
13.318737716489848
30
0
40
0.99999999999994316
210
0
220
0
230
1
100
AcDbArc
50
180
51
264.7840914294851
0
ARC
5
297
100
AcDbEntity
8
0
100
AcDbCircle
10
-299.61250000000354
20
8.9369572564490589
30
0
40
3.3999999999999106
210
0
220
-0
230
1
100
AcDbArc
50
10.640592550429862
51
84.784091429483183
0
ARC
5
298
100
AcDbEntity
8
0
100
AcDbCircle
10
-295.28815897772927
20
9.7494070844843641
30
0
40
0.99999999999995826
210
0
220
0
230
1
100
AcDbArc
50
190.64059255042801
51
270.00000000000324
0
LINE
5
299
100
AcDbEntity
8
0
100
AcDbLine
10
-295.28815897772921
20
8.7494070844844067
30
0
11
-278.50750000000005
21
8.7494070844844014
31
0
0
ARC
5
300
100
AcDbEntity
8
0
100
AcDbCircle
10
-278.50750000000005
20
7.9369070844844005
30
0
40
0.81250000000000711
210
-0
220
0
230
1
100
AcDbArc
50
0
51
90
0
ARC
5
301
100
AcDbEntity
8
0
100
AcDbCircle
10
-276.88250000000005
20
7.9369070844843881
30
0
40
0.81250000000000711
210
0
220
0
230
1
100
AcDbArc
50
180
51
270
0
LINE
5
302
100
AcDbEntity
8
0
100
AcDbLine
10
-276.88250000000005
20
7.1244070844843455
30
0
11
-258.13250000000005
21
7.124407084484341
31
0
0
ARC
5
303
100
AcDbEntity
8
0
100
AcDbCircle
10
-258.13250000000005
20
6.6869070844843268
30
0
40
0.43749999999999956
210
-0
220
0
230
1
100
AcDbArc
50
-90
51
90
0
LINE
5
304
100
AcDbEntity
8
0
100
AcDbLine
10
-258.13250000000005
20
6.2494070844843277
30
0
11
-295.1625000000015
21
6.2494070844843286
31
0
0
ARC
5
305
100
AcDbEntity
8
0
100
AcDbCircle
10
-295.1625000000015
20
5.2494070844843277
30
0
40
1.0000000000000009
210
0
220
-0
230
1
100
AcDbArc
50
90
51
180
0
LINE
5
306
100
AcDbEntity
8
0
100
AcDbLine
10
-296.16250000000156
20
5.2494070844843277
30
0
11
-296.16250000000156
21
3.7494070844843188
31
0
0
ARC
5
307
100
AcDbEntity
8
0
100
AcDbCircle
10
-295.1625000000015
20
3.7494070844843543
30
0
40
1.0000000000000497
210
0
220
0
230
1
100
AcDbArc
50
180
51
270
0
LINE
5
308
100
AcDbEntity
8
0
100
AcDbLine
10
-295.1625000000015
20
2.7494070844843046
30
0
11
-247.16250000000156
21
2.7494070844843188
31
0
0
ARC
5
309
100
AcDbEntity
8
0
100
AcDbCircle
10
-247.16250000000159
20
3.7494070844843508
30
0
40
1.000000000000032
210
0
220
0
230
1
100
AcDbArc
50
270.00000000000159
51
341.49343312502162
0
ARC
5
310
100
AcDbEntity
8
0
100
AcDbCircle
10
-246.68835635922568
20
3.5907004119346686
30
0
40
0.50000000000002776
210
-0
220
0
230
1
100
AcDbArc
50
-18.506566874975558
51
46.342769712475395
0
ARC
5
311
100
AcDbEntity
8
0
100
AcDbCircle
10
-244.96250000000148
20
5.3994070844843272
30
0
40
2.0000000000000147
210
0
220
0
230
1
100
AcDbArc
50
132.84364304359735
51
226.34276971247422
0
ARC
5
312
100
AcDbEntity
8
0
100
AcDbCircle
10
-246.66250000000167
20
7.2324373624667118
30
0
40
0.50000000000015388
210
0
220
0
230
1
100
AcDbArc
50
312.84364304360429
51
360
0
LINE
5
313
100
AcDbEntity
8
0
100
AcDbLine
10
-246.16250000000153
20
7.2324373624666443
30
0
11
-246.16250000000153
21
7.874407084484341
31
0
0
ARC
5
314
100
AcDbEntity
8
0
100
AcDbCircle
10
-247.16250000000159
20
7.8744070844843055
30
0
40
1.0000000000000497
210
0
220
-0
230
1
100
AcDbArc
50
0
51
89.99999999999838
0
LINE
5
315
100
AcDbEntity
8
0
100
AcDbLine
10
-247.16250000000156
20
8.8744070844843552
30
0
11
-267.25750000000005
21
8.874407084484341
31
0
0
ARC
5
316
100
AcDbEntity
8
0
100
AcDbCircle
10
-267.25750000000011
20
9.311907084484341
30
0
40
0.43749999999999956
210
0
220
-0
230
1
100
AcDbArc
50
90
51
270.00000000000745
0
LINE
5
317
100
AcDbEntity
8
0
100
AcDbLine
10
-267.25750000000011
20
9.749407084484341
30
0
11
-245.25358930825342
21
9.7494070844843428
31
0
0
ARC
5
318
100
AcDbEntity
8
0
100
AcDbCircle
10
-245.25358930825342
20
9.249407084484341
30
0
40
0.49999999999999939
210
0
220
-0
230
1
100
AcDbArc
50
69.35032851636926
51
90
0
LINE
5
319
100
AcDbEntity
8
0
100
AcDbLine
10
-245.07726280072657
20
9.7172841652901703
30
0
11
-243.55188793978652
21
9.1424237309308687
31
0
0
ARC
5
320
100
AcDbEntity
8
0
100
AcDbCircle
10
-244.96250000000148
20
5.3994070844843272
30
0
40
3.9999999999999778
210
0
220
-0
230
1
100
AcDbArc
50
60.458639499857995
51
69.350328516366901
0
ARC
5
321
100
AcDbEntity
8
0
100
AcDbCircle
10
-242.49724139287736
20
9.7494070844843854
30
0
40
1.0000000000000351
210
0
220
0
230
1
100
AcDbArc
50
240.45863949985983
51
270
0
LINE
5
322
100
AcDbEntity
8
0
100
AcDbLine
10
-242.49724139287736
20
8.7494070844843481
30
0
11
-231.35549874127167
21
8.7494070844843392
31
0
0
ARC
5
323
100
AcDbEntity
8
0
100
AcDbCircle
10
-231.35549874127165
20
9.7494070844843108
30
0
40
0.99999999999997202
210
0
220
0
230
1
100
AcDbArc
50
269.99999999999835
51
349.35940744957207
0
ARC
5
324
100
AcDbEntity
8
0
100
AcDbCircle
10
-227.03115771899729
20
8.9369572564490056
30
0
40
3.4000000000000337
210
0
220
-0
230
1
100
AcDbArc
50
24.325529517052768
51
169.35940744957037
0
ARC
5
325
100
AcDbEntity
8
0
100
AcDbCircle
10
-223.0217904845257
20
10.749407084484222
30
0
40
0.99999999999988787
210
0
220
0
230
1
100
AcDbArc
50
204.32552951704903
51
270.00000000000489
0
LINE
5
326
100
AcDbEntity
8
0
100
AcDbLine
10
-223.02179048452561
20
9.7494070844843304
30
0
11
-193.96865771899718
21
9.7494070844843108
31
0
0
ARC
5
327
100
AcDbEntity
8
0
100
AcDbCircle
10
-193.96865771899724
20
9.3119070844843108
30
0
40
0.43749999999999956
210
0
220
0
230
1
100
AcDbArc
50
-90
51
89.999999999992568
0
LINE
5
328
100
AcDbEntity
8
0
100
AcDbLine
10
-193.96865771899724
20
8.8744070844843108
30
0
11
-222.53115771899724
21
8.8744070844843108
31
0
0
ARC
5
329
100
AcDbEntity
8
0
100
AcDbCircle
10
-222.53115771899726
20
7.8744070844843108
30
0
40
0.99999999999999978
210
0
220
-0
230
1
100
AcDbArc
50
89.99999999999838
51
180
0
LINE
5
330
100
AcDbEntity
8
0
100
AcDbLine
10
-223.53115771899726
20
7.8744070844843108
30
0
11
-223.53115771899724
21
3.7494070844843175
31
0
0
ARC
5
331
100
AcDbEntity
8
0
100
AcDbCircle
10
-222.53115771899726
20
3.7494070844843175
30
0
40
0.99999999999997868
210
0
220
0
230
1
100
AcDbArc
50
180
51
270.00000000000159
0
LINE
5
332
100
AcDbEntity
8
0
100
AcDbLine
10
-222.53115771899724
20
2.7494070844843388
30
0
11
-174.53115771899724
21
2.749407084484317
31
0
0
ARC
5
333
100
AcDbEntity
8
0
100
AcDbCircle
10
-174.53115771899721
20
3.7494070844843175
30
0
40
1.0000000000000004
210
0
220
0
230
1
100
AcDbArc
50
-90.000000000001634
51
0
0
LINE
5
334
100
AcDbEntity
8
0
100
AcDbLine
10
-173.53115771899721
20
3.7494070844843175
30
0
11
-173.53115771899724
21
5.2494070844843197
31
0
0
ARC
5
335
100
AcDbEntity
8
0
100
AcDbCircle
10
-174.53115771899721
20
5.2494070844843197
30
0
40
0.99999999999997868
210
0
220
0
230
1
100
AcDbArc
50
0
51
90.000000000001634
0
LINE
5
336
100
AcDbEntity
8
0
100
AcDbLine
10
-174.53115771899724
20
6.2494070844842984
30
0
11
-203.09365771899724
21
6.2494070844843197
31
0
0
ARC
5
337
100
AcDbEntity
8
0
100
AcDbCircle
10
-203.09365771899724
20
6.6869070844843108
30
0
40
0.43749999999999956
210
0
220
-0
230
1
100
AcDbArc
50
90
51
270
0
LINE
5
338
100
AcDbEntity
8
0
100
AcDbLine
10
-203.09365771899724
20
7.1244070844843099
30
0
11
-184.34365771899721
21
7.1244070844843126
31
0
0
ARC
5
339
100
AcDbEntity
8
0
100
AcDbCircle
10
-184.34365771899724
20
7.936907084484341
30
0
40
0.81250000000002931
210
0
220
0
230
1
100
AcDbArc
50
270.00000000000199
51
360
0
ARC
5
340
100
AcDbEntity
8
0
100
AcDbCircle
10
-182.71865771899724
20
7.9369070844843348
30
0
40
0.81250000000000044
210
0
220
-0
230
1
100
AcDbArc
50
90
51
180
0
LINE
5
341
100
AcDbEntity
8
0
100
AcDbLine
10
-182.71865771899724
20
8.7494070844843357
30
0
11
-174.35549874127162
21
8.7494070844843357
31
0
0
ARC
5
342
100
AcDbEntity
8
0
100
AcDbCircle
10
-174.35549874127159
20
9.7494070844843055
30
0
40
0.9999999999999698
210
0
220
0
230
1
100
AcDbArc
50
269.99999999999835
51
349.35940744957145
0
ARC
5
343
100
AcDbEntity
8
0
100
AcDbCircle
10
-170.03115771899724
20
8.9369572564490021
30
0
40
3.3999999999999426
210
0
220
-0
230
1
100
AcDbArc
50
10.640592550429343
51
169.35940744957057
0
ARC
5
344
100
AcDbEntity
8
0
100
AcDbCircle
10
-165.70681669672285
20
9.7494070844842931
30
0
40
0.99999999999999334
210
0
220
0
230
1
100
AcDbArc
50
190.64059255042781
51
270.00000000000159
0
LINE
5
345
100
AcDbEntity
8
0
100
AcDbLine
10
-165.70681669672283
20
8.7494070844843357
30
0
11
-143.8031833018471
21
8.7494070844843179
31
0
0
ARC
5
346
100
AcDbEntity
8
0
100
AcDbCircle
10
-143.8031833018471
20
9.7494070844842948
30
0
40
0.99999999999997757
210
0
220
0
230
1
100
AcDbArc
50
270
51
349.35940744957196
0
ARC
5
347
100
AcDbEntity
8
0
100
AcDbCircle
10
-139.47884227957272
20
8.9369572564489967
30
0
40
3.3999999999999844
210
0
220
-0
230
1
100
AcDbArc
50
10.640592550426621
51
169.35940744957057
0
ARC
5
348
100
AcDbEntity
8
0
100
AcDbCircle
10
-135.15450125729831
20
9.7494070844840657
30
0
40
0.99999999999996325
210
0
220
0
230
1
100
AcDbArc
50
190.64059255042417
51
270.00000000000648
0
LINE
5
349
100
AcDbEntity
8
0
100
AcDbLine
10
-135.15450125729819
20
8.7494070844841207
30
0
11
-126.79134227957279
21
8.7494070844846323
31
0
0
ARC
5
350
100
AcDbEntity
8
0
100
AcDbCircle
10
-126.79134227957275
20
7.9369070844846314
30
0
40
0.81250000000000711
210
-0
220
0
230
1
100
AcDbArc
50
0
51
90.000000000003027
0
ENDSEC
0
SECTION
2
OBJECTS
0
DICTIONARY
5
C
100
AcDbDictionary
3
ACAD_GROUP
350
D
3
ACAD_MLINESTYLE
350
17
0
DICTIONARY
5
D
100
AcDbDictionary
0
DICTIONARY
5
1A
330
C
100
AcDbDictionary
0
DICTIONARY
5
17
100
AcDbDictionary
0
ENDSEC
0
EOF
