0
SECTION
2
HEADER
9
$INSUNITS
70
4
9
$ACADVER
1
AC1014
9
$HANDSEED
5
FFFF
0
ENDSEC
0
SECTION
2
TABLES
0
TABLE
2
VPORT
5
8
100
AcDbSymbolTable
0
ENDTAB
0
TABLE
2
LTYPE
5
5
100
AcDbSymbolTable
0
LTYPE
5
14
100
AcDbSymbolTableRecord
100
AcDbLinetypeTableRecord
2
BYBLOCK
70
0
0
LTYPE
5
15
100
AcDbSymbolTableRecord
100
AcDbLinetypeTableRecord
2
BYLAYER
70
0
0
ENDTAB
0
TABLE
2
LAYER
5
2
100
AcDbSymbolTable
70
2
0
LAYER
5
50
100
AcDbSymbolTableRecord
100
AcDbLayerTableRecord
2
0
70
0
6
CONTINUOUS
0
ENDTAB
0
TABLE
2
STYLE
5
3
100
AcDbSymbolTable
70
1
0
STYLE
5
11
100
AcDbSymbolTableRecord
100
AcDbTextStyleTableRecord
2
STANDARD
70
0
0
ENDTAB
0
TABLE
2
VIEW
5
6
100
AcDbSymbolTable
70
0
0
ENDTAB
0
TABLE
2
UCS
5
7
100
AcDbSymbolTable
70
0
0
ENDTAB
0
TABLE
2
APPID
5
9
100
AcDbSymbolTable
70
2
0
APPID
5
12
100
AcDbSymbolTableRecord
100
AcDbRegAppTableRecord
2
ACAD
70
0
0
ENDTAB
0
TABLE
2
DIMSTYLE
5
A
100
AcDbSymbolTable
70
1
0
ENDTAB
0
TABLE
2
BLOCK_RECORD
5
1
100
AcDbSymbolTable
70
1
0
BLOCK_RECORD
5
1F
100
AcDbSymbolTableRecord
100
AcDbBlockTableRecord
2
*MODEL_SPACE
0
BLOCK_RECORD
5
1B
100
AcDbSymbolTableRecord
100
AcDbBlockTableRecord
2
*PAPER_SPACE
0
ENDTAB
0
ENDSEC
0
SECTION
2
BLOCKS
0
BLOCK
5
20
100
AcDbEntity
100
AcDbBlockBegin
2
*MODEL_SPACE
0
ENDBLK
5
21
100
AcDbEntity
100
AcDbBlockEnd
0
BLOCK
5
1C
100
AcDbEntity
100
AcDbBlockBegin
2
*PAPER_SPACE
0
ENDBLK
5
1D
100
AcDbEntity
100
AcDbBlockEnd
0
ENDSEC
0
SECTION
2
ENTITIES
0
CIRCLE
5
100
100
AcDbEntity
8
0
100
AcDbCircle
10
-257.29219955143481
20
81.339999995928082
30
0
40
1.0999999999999943
210
0
220
0
230
1
0
CIRCLE
5
101
100
AcDbEntity
8
0
100
AcDbCircle
10
-4.0200000000000715
20
52.836957256448969
30
0
40
1.1000000000000005
210
0
220
0
230
1
0
CIRCLE
5
102
100
AcDbEntity
8
0
100
AcDbCircle
10
-154.75499999929036
20
94.640288866907383
30
0
40
1.0999999999999943
210
0
220
0
230
1
0
CIRCLE
5
103
100
AcDbEntity
8
0
100
AcDbCircle
10
-194.75499999929008
20
12.749407084484325
30
0
40
1.0999999999999943
210
0
220
0
230
1
0
CIRCLE
5
104
100
AcDbEntity
8
0
100
AcDbCircle
10
-55.63993449129525
20
81.340000000002831
30
0
40
1.1000000000000032
210
0
220
0
230
1
0
CIRCLE
5
105
100
AcDbEntity
8
0
100
AcDbCircle
10
-114.75499999929006
20
12.749407084484307
30
0
40
1.0999999999999943
210
0
220
0
230
1
0
CIRCLE
5
106
100
AcDbEntity
8
0
100
AcDbCircle
10
-296.16250000000025
20
21.836957256448958
30
0
40
1.0999999999999943
210
0
220
0
230
1
0
CIRCLE
5
107
100
AcDbEntity
8
0
100
AcDbCircle
10
-105.82583914021498
20
18.481358859063668
30
0
40
1.7500000000000071
210
0
220
0
230
1
0
CIRCLE
5
108
100
AcDbEntity
8
0
100
AcDbCircle
10
-254.14500000000004
20
12.89483870204776
30
0
40
1.7500000000000071
210
0
220
0
230
1
0
CIRCLE
5
109
100
AcDbEntity
8
0
100
AcDbCircle
10
-194.37416085978501
20
20.461358859063772
30
0
40
1.7500000000000071
210
0
220
0
230
1
0
CIRCLE
5
110
100
AcDbEntity
8
0
100
AcDbCircle
10
-46.135000000000005
20
12.940000000000008
30
0
40
1.749999999999998
210
0
220
0
230
1
0
LWPOLYLINE
5
111
100
AcDbEntity
8
0
100
AcDbPolyline
90
8
70
1
43
0.0
10
-27.134999999993106
20
85.340000000001496
10
-39.134999999994129
20
85.340000000001496
42
0.41421356237301571
10
-40.134999999993113
20
84.340000000002746
10
-40.134999999995252
20
72.340000000543071
42
0.41421356237316009
10
-39.134999999453903
20
71.34000000000151
10
-27.134999999828253
20
71.340000000000927
42
0.41421356237302348
10
-26.134999999995827
20
72.33999999983314
10
-26.134999999993106
20
84.340000000001268
42
0.41421356237315488
0
LWPOLYLINE
5
112
100
AcDbEntity
8
0
100
AcDbPolyline
90
8
70
1
43
0.0
10
-30.609999999999964
20
28.190000000000058
42
-0.41421356237309243
10
-29.609999999999964
20
27.190000000000055
10
-29.609999999999971
20
15.19000000000001
42
-0.4142135623730957
10
-30.609999999999971
20
14.190000000000007
10
-42.609999999999992
20
14.190000000000049
42
-0.41421356237309503
10
-43.609999999999985
20
15.190000000000046
10
-43.609999999999985
20
27.190000000000051
42
-0.41421356237309631
10
-42.609999999999992
20
28.190000000000047
0
LWPOLYLINE
5
113
100
AcDbEntity
8
0
100
AcDbPolyline
90
8
70
1
43
0.0
10
-182.35907264336362
20
38.605938770199877
42
-0.41421356237308837
10
-181.17301335181202
20
37.835702860283888
10
-178.67807306199879
20
26.097931651478184
42
-0.41421356237310253
10
-179.44830897191486
20
24.911872359926587
10
-191.18608018072052
20
22.416932070113511
42
-0.41421356237305473
10
-192.37213947227212
20
23.187167980029486
10
-194.86707976208533
20
34.924939188835175
42
-0.41421356237304352
10
-194.09684385216929
20
36.110998480386741
0
LWPOLYLINE
5
114
100
AcDbEntity
8
0
100
AcDbPolyline
90
8
70
1
43
0.0
10
-219.6264962313216
20
30.684503350043229
10
-231.36426744012732
20
28.189563060230146
42
0.41421356237298401
10
-232.1345033500433
20
27.00350376867852
10
-229.6395630602301
20
15.265732559872822
42
0.41421356237302759
10
-228.45350376867856
20
14.495496649956818
10
-216.71573255987286
20
16.990436939769872
42
0.41421356237302615
10
-215.94549664995682
20
18.176496231321501
10
-218.44043693976985
20
29.91426744012719
42
0.41421356237310419
0
LWPOLYLINE
5
115
100
AcDbEntity
8
0
100
AcDbPolyline
90
8
70
1
43
0.0
10
-170.94607855946211
20
99.460368274253511
10
-189.67149169101009
20
95.480158843160439
42
0.41421356237309503
10
-190.44172760092607
20
94.294099551608895
10
-187.94678731111264
20
82.556328342803226
42
0.41421356237310525
10
-186.7607280195611
20
81.786092432887216
10
-168.0353148880134
20
85.766301863980203
42
0.41421356237308488
10
-167.26507897809739
20
86.952361155531747
10
-169.76001926791054
20
98.690132364337501
42
0.41421356237309503
0
LWPOLYLINE
5
116
100
AcDbEntity
8
0
100
AcDbPolyline
90
8
70
1
43
0.0
10
-6.5900000000000247
20
13.050000000000228
10
-6.5900000000000603
20
25.050000000000043
42
0.41421356237309048
10
-7.5900000000000389
20
26.050000000000111
10
-19.589999999999989
20
26.050000000000104
42
0.41421356237309764
10
-20.590000000000011
20
25.0500000000001
10
-20.589999999999957
20
13.050000000000079
42
0.41421356237309243
10
-19.589999999999996
20
12.050000000000107
10
-7.590000000000213
20
12.050000000000045
42
0.41421356237309537
0
LWPOLYLINE
5
117
100
AcDbEntity
8
0
100
AcDbPolyline
90
8
70
1
43
0.0
10
-289.21949999999566
20
84.339999996128483
42
-0.41421356236913048
10
-288.21950000003744
20
85.339999996100204
10
-276.21950000010423
20
85.339999996262577
42
-0.41421356237701279
10
-275.21949999999572
20
84.339999996167649
10
-275.21949999999583
20
72.34000000167326
42
-0.41421356237477552
10
-276.21950000007325
20
71.340000001601595
10
-288.21950000000078
20
71.340000001671143
42
-0.41421356237139373
10
-289.21949999999578
20
72.340000001671967
0
LWPOLYLINE
5
118
100
AcDbEntity
8
0
100
AcDbPolyline
90
8
70
1
43
0.0
10
-227.69649623132159
20
88.934503350043244
42
-0.41421356237312157
10
-226.51043693977002
20
88.164267440127162
10
-224.0154966499567
20
76.426496231321565
42
-0.41421356237305368
10
-224.78573255987274
20
75.240436939769936
10
-236.52350376867844
20
72.745496649956692
42
-0.41421356237310486
10
-237.70956306022995
20
73.515732559872788
10
-240.2045033500433
20
85.253503768678414
42
-0.41421356237311246
10
-239.43426744012729
20
86.439563060229986
0
LWPOLYLINE
5
119
100
AcDbEntity
8
0
100
AcDbPolyline
90
8
70
1
43
0.0
10
-168.66436126801986
20
47.708649361556532
10
-171.15930155783289
20
59.446420570362179
42
0.41421356237307161
10
-172.34536084938458
20
60.216656480278218
10
-184.08313205819016
20
57.721716190465116
42
0.41421356237309048
10
-184.85336796810628
20
56.535656898913508
10
-182.35842767829314
20
44.797885690107826
42
0.41421356237305018
10
-181.1723683867416
20
44.027649780191837
10
-169.43459717793584
20
46.522590070004952
42
0.41421356237308432
0
LWPOLYLINE
5
120
100
AcDbEntity
8
0
100
AcDbPolyline
90
8
70
1
43
0.0
10
-139.38540282206415
20
26.892590070004808
10
-127.64763161325848
20
24.397649780191699
42
0.41421356237310675
10
-126.46157232170694
20
25.167885690107745
10
-123.96663203189378
20
36.905656898913435
42
0.41421356237306567
10
-124.73686794180986
20
38.091716190465007
10
-136.47463915061553
20
40.586656480278116
42
0.41421356237315632
10
-137.66069844216707
20
39.816420570362048
10
-140.15563873198025
20
28.078649361556391
42
0.41421356237317036
0
LWPOLYLINE
5
121
100
AcDbEntity
8
0
100
AcDbPolyline
90
8
70
1
43
0.0
10
-68.835732559872895
20
26.209563060230106
42
-0.41421356237310708
10
-68.065496649956799
20
25.023503768678523
10
-70.560436939769929
20
13.285732559872836
42
-0.41421356237311829
10
-71.746496231321515
20
12.515496649956766
10
-83.484267440127155
20
15.010436939769914
42
-0.41421356237314805
10
-84.254503350043208
20
16.196496231321465
10
-81.75956306023005
20
27.93426744012713
42
-0.41421356237313789
10
-80.573503768678577
20
28.704503350043211
0
LWPOLYLINE
5
122
100
AcDbEntity
8
0
100
AcDbPolyline
90
8
70
1
43
0.0
10
-128.93553997787126
20
97.413792616104601
42
-0.41421356237310525
10
-128.16530406795522
20
96.227733324553043
10
-130.66024435776816
20
84.489962115748199
42
-0.41421356237308488
10
-131.84630364931979
20
83.719726205832089
10
-145.91328883237321
20
86.709756209405128
42
-0.41421356237309392
10
-146.68352474228922
20
87.895815500956644
10
-144.18858493261911
20
99.633584450867573
42
-0.41421356237307871
10
-143.00252290203082
20
100.40382213953487
0
LWPOLYLINE
5
123
100
AcDbEntity
8
0
100
AcDbPolyline
90
8
70
1
43
0.0
10
-15.519999999999975
20
31.100000000000104
42
-0.4142135623730957
10
-16.519999999999971
20
32.100000000000101
10
-16.519999999999968
20
44.100000000000094
42
-0.41421356237309503
10
-15.519999999999969
20
45.100000000000087
10
-3.5200000000000031
20
45.100000000000087
42
-0.41421356237309992
10
-2.5199999999999925
20
44.100000000000094
10
-2.5199999999999894
20
32.100000000000108
42
-0.41421356237309459
10
-3.5199999999999898
20
31.100000000000104
0
LWPOLYLINE
5
124
100
AcDbEntity
8
0
100
AcDbPolyline
90
8
70
1
43
0.0
10
-143.71069844216706
20
80.056420570362036
10
-146.2056387319802
20
68.318649361556382
42
0.41421356237311396
10
-145.43540282206413
20
67.132590070004809
10
-133.69763161325852
20
64.637649780191722
42
0.41421356237315377
10
-132.51157232170695
20
65.407885690107747
10
-130.01663203189378
20
77.145656898913444
42
0.41421356237303436
10
-130.78686794180985
20
78.331716190465016
10
-142.5246391506156
20
80.826656480278146
42
0.41421356237309198
0
LWPOLYLINE
5
125
100
AcDbEntity
8
0
100
AcDbPolyline
90
8
70
1
43
0.0
10
-102.81797923410622
20
38.601154649848205
42
-0.41421356237311491
10
-103.58821514402221
20
39.787213941399784
10
-101.09327485420906
20
51.524985150205431
42
-0.41421356237311702
10
-99.907215562657569
20
52.29522106012152
10
-88.169444353851873
20
49.800280770308412
42
-0.41421356237304147
10
-87.399208443935819
20
48.614221478756825
10
-89.894148733748978
20
36.876450269951143
42
-0.41421356237311219
10
-91.080208025300465
20
36.106214360035082
0
LWPOLYLINE
5
126
100
AcDbEntity
8
0
100
AcDbPolyline
90
8
70
1
43
0.0
10
-87.46944435385187
20
30.170280770308402
42
-0.41421356237306978
10
-86.699208443935817
20
28.984221478756812
10
-89.194148733748932
20
17.246450269951133
42
-0.41421356237311996
10
-90.380208025300504
20
16.476214360035083
10
-102.11797923410616
20
18.971154649848213
42
-0.41421356237316981
10
-102.88821514402218
20
20.157213941399764
10
-100.39327485420911
20
31.894985150205429
42
-0.41421356237314194
10
-99.207215562657623
20
32.665221060121524
0
LWPOLYLINE
5
127
100
AcDbEntity
8
0
100
AcDbPolyline
90
8
70
1
43
0.0
10
-205.93178485597772
20
39.787213941399848
42
-0.41421356237306034
10
-206.70202076589388
20
38.601154649848262
10
-218.43979197469949
20
36.106214360035132
42
-0.41421356237305501
10
-219.62585126625115
20
36.876450269951171
10
-222.12079155606432
20
48.614221478756825
42
-0.41421356237305068
10
-221.35055564614817
20
49.800280770308454
10
-209.6127844373425
20
52.295221060121548
42
-0.414213562373141
10
-208.4267251457909
20
51.524985150205531
0
LWPOLYLINE
5
128
100
AcDbEntity
8
0
100
AcDbPolyline
90
8
70
1
43
0.0
10
-126.80169102808517
20
63.17187235992651
42
-0.41421356237311396
10
-127.57192693800123
20
64.357931651478083
10
-125.0769866481881
20
76.095702860283737
42
-0.41421356237312412
10
-123.89092735663654
20
76.865938770199833
10
-112.15315614783083
20
74.370998480386703
42
-0.41421356237307616
10
-111.38292023791479
20
73.184939188835102
10
-113.87786052772789
20
61.447167980029448
42
-0.41421356237309503
10
-115.06391981927946
20
60.676932070113416
0
LWPOLYLINE
5
129
100
AcDbEntity
8
0
100
AcDbPolyline
90
8
70
1
43
0.0
10
-185.61907264336358
20
76.865938770199875
10
-197.35684385216922
20
74.37099848038676
42
0.41421356237312978
10
-198.12707976208529
20
73.184939188835173
10
-195.63213947227226
20
61.447167980029498
42
0.41421356237307161
10
-194.4460801807206
20
60.676932070113487
10
-182.70830897191487
20
63.171872359926624
42
0.4142135623731405
10
-181.93807306199886
20
64.357931651478182
10
-184.43301335181201
20
76.095702860283865
42
0.41421356237308582
0
LWPOLYLINE
5
130
100
AcDbEntity
8
0
100
AcDbPolyline
90
8
70
1
43
0.0
10
-272.35375000000016
20
34.240000000000002
42
-0.41421356237307294
10
-273.3537500000001
20
33.239999999999995
10
-285.35375000000022
20
33.240000000000009
42
-0.41421356237302609
10
-286.35375000000022
20
34.240000000000002
10
-286.35375000000022
20
46.239999999999988
42
-0.41421356237307944
10
-285.35375000000028
20
47.240000000000023
10
-273.35375000000016
20
47.240000000000023
42
-0.41421356237306384
10
-272.35375000000016
20
46.240000000000038
0
LWPOLYLINE
5
131
100
AcDbEntity
8
0
100
AcDbPolyline
90
8
70
1
43
0.0
10
-106.44327485420909
20
72.134985150205438
10
-108.93821514402221
20
60.397213941399755
42
0.41421356237309814
10
-108.16797923410617
20
59.211154649848226
10
-96.430208025300487
20
56.716214360035096
42
0.4142135623731083
10
-95.244148733748872
20
57.486450269951142
10
-92.749208443935757
20
69.224221478756817
42
0.41421356237303941
10
-93.519444353851853
20
70.410280770308418
10
-105.25721556265756
20
72.905221060121534
42
0.41421356237312013
0
LWPOLYLINE
5
132
100
AcDbEntity
8
0
100
AcDbPolyline
90
8
70
1
43
0.0
10
-76.610436939769912
20
53.52573255987285
42
-0.41421356237311652
10
-77.796496231321456
20
52.755496649956797
10
-89.534267440127167
20
55.250436939769905
42
-0.4142135623731083
10
-90.304503350043234
20
56.436496231321421
10
-87.809563060230118
20
68.174267440127139
42
-0.41421356237310941
10
-86.623503768678546
20
68.94450335004322
10
-74.885732559872835
20
66.449563060230119
42
-0.41421356237305218
10
-74.115496649956754
20
65.263503768678504
0
LWPOLYLINE
5
133
100
AcDbEntity
8
0
100
AcDbPolyline
90
8
70
1
43
0.0
10
-275.22000000000014
20
15.189999999999973
42
-0.4142135623730937
10
-276.22000000000014
20
14.189999999999973
10
-288.22000000000008
20
14.190000000000007
42
-0.41421356237308915
10
-289.22000000000014
20
15.190000000000001
10
-289.22000000000014
20
27.18999999999998
42
-0.41421356237308332
10
-288.22000000000008
20
28.190000000000026
10
-276.22000000000014
20
28.190000000000058
42
-0.41421356237309243
10
-275.22000000000014
20
27.190000000000051
0
LWPOLYLINE
5
134
100
AcDbEntity
8
0
100
AcDbPolyline
90
8
70
1
43
0.0
10
-257.17000000000002
20
28.190000000000047
10
-269.17000000000002
20
28.19000000000004
42
0.41421356237308721
10
-270.17000000000002
20
27.19000000000004
10
-270.17000000000002
20
15.189999999999985
42
0.41421356237308721
10
-269.17000000000002
20
14.189999999999987
10
-257.17000000000002
20
14.18999999999995
42
0.41421356237306967
10
-256.17000000000007
20
15.190000000000028
10
-256.17000000000007
20
27.190000000000012
42
0.41421356237309243
0
LWPOLYLINE
5
135
100
AcDbEntity
8
0
100
AcDbPolyline
90
8
70
1
43
0.0
10
-107.82786052772792
20
21.207167980029446
10
-105.33292023791481
20
32.944939188835122
42
0.41421356237309453
10
-106.10315614783089
20
34.130998480386701
10
-117.84092735663654
20
36.625938770199831
42
0.4142135623731435
10
-119.02698664818814
20
35.855702860283728
10
-121.52192693800123
20
24.117931651478081
42
0.41421356237314655
10
-120.75169102808516
20
22.931872359926523
10
-109.01391981927951
20
20.436932070113386
42
0.41421356237311058
0
LWPOLYLINE
5
136
100
AcDbEntity
8
0
100
AcDbPolyline
90
8
70
1
43
0.0
10
-42.516249999999971
20
65.289999999999992
10
-42.516249999999971
20
53.289999999999999
42
0.41421356237310281
10
-41.516249999999957
20
52.289999999999999
10
-29.516249999999971
20
52.289999999999999
42
0.41421356237311846
10
-28.516249999999985
20
53.290000000000042
10
-28.516249999999971
20
65.29000000000002
42
0.41421356237310675
10
-29.516249999999999
20
66.290000000000035
10
-41.516249999999992
20
66.290000000000035
42
0.41421356237308721
0
LWPOLYLINE
5
137
100
AcDbEntity
8
0
100
AcDbPolyline
90
8
70
1
43
0.0
10
-119.72698664818807
20
55.48570286028373
10
-122.22192693800122
20
43.747931651478069
42
0.41421356237311596
10
-121.45169102808516
20
42.561872359926511
10
-109.7139198192795
20
40.066932070113388
42
0.41421356237309814
10
-108.52786052772787
20
40.837167980029434
10
-106.03292023791477
20
52.574939188835117
42
0.41421356237311652
10
-106.80315614783086
20
53.760998480386704
10
-118.54092735663654
20
56.255938770199833
42
0.41421356237312773
0
LWPOLYLINE
5
138
100
AcDbEntity
8
0
100
AcDbPolyline
90
15
70
1
43
0.0
10
-99.809572966819161
20
90.20053662238459
42
-0.31783786983829426
10
-100.20137241767526
20
90.624597459306671
42
0.31783787031082794
10
-100.98496754103414
20
91.472715042221296
10
-115.05195745596561
20
94.462746051587075
42
0.41421377513140145
10
-116.23801689858934
20
93.692509431113322
10
-118.73294866205197
20
81.954736410014561
42
0.41421334961480322
10
-117.96271260110869
20
80.768677828991571
10
-104.32930905889503
20
77.870808448197891
42
-0.4142135616408622
10
-103.94419110367716
20
77.277778803644708
10
-104.0481469649764
20
76.78870492250779
42
0.41421356164090806
10
-103.27791111504925
20
75.602645726576554
10
-98.387173034538023
20
74.563087256154461
42
0.41421356310527141
10
-97.201113742467058
20
75.333323168515449
10
-94.498261794400349
20
88.049241981157579
42
0.41421356113806745
10
-95.268497703156811
20
89.23530126990704
0
LWPOLYLINE
5
139
100
AcDbEntity
8
0
100
AcDbPolyline
90
8
70
1
43
0.0
10
-197.31178485597786
20
22.137213941399846
10
-199.80672514579089
20
33.874985150205525
42
0.41421356237306778
10
-200.99278443734252
20
34.645221060121557
10
-212.73055564614828
20
32.150280770308449
42
0.41421356237305063
10
-213.50079155606443
20
30.964221478756837
10
-211.00585126625109
20
19.226450269951165
42
0.41421356237306323
10
-209.81979197469954
20
18.456214360035148
10
-198.0820207658939
20
20.951154649848224
42
0.41421356237305218
0
LWPOLYLINE
5
140
100
AcDbEntity
8
0
100
AcDbPolyline
90
8
70
1
43
0.0
10
-203.48707976208527
20
52.574939188835181
42
-0.41421356237307266
10
-202.71684385216915
20
53.760998480386739
10
-190.97907264336362
20
56.255938770199904
42
-0.41421356237314355
10
-189.79301335181202
20
55.485702860283872
10
-187.29807306199882
20
43.747931651478204
42
-0.41421356237305834
10
-188.06830897191486
20
42.561872359926618
10
-199.80608018072053
20
40.066932070113467
42
-0.41421356237302054
10
-200.9921394722721
20
40.837167980029534
0
LWPOLYLINE
5
141
100
AcDbEntity
8
0
100
AcDbPolyline
90
8
70
1
43
0.0
10
-251.53999999999999
20
26.129999999999995
42
-0.41421356237310936
10
-250.54000000000002
20
27.130000000000024
10
-238.53999999999999
20
27.130000000000031
42
-0.4142135623730378
10
-237.54000000000002
20
26.130000000000035
10
-237.53999999999996
20
14.130000000000003
42
-0.41421356237305273
10
-238.53999999999999
20
13.130000000000006
10
-250.54000000000002
20
13.130000000000022
42
-0.4142135623730957
10
-251.53999999999999
20
14.130000000000003
0
LWPOLYLINE
5
142
100
AcDbEntity
8
0
100
AcDbPolyline
90
8
70
1
43
0.0
10
-163.30436126801985
20
68.31864936155651
10
-165.79930155783299
20
80.056420570362192
42
0.41421356237309503
10
-166.98536084938465
20
80.826656480278203
10
-178.72313205819015
20
78.331716190465116
42
0.41421356237309048
10
-179.49336796810627
20
77.145656898913501
10
-176.99842767829321
20
65.407885690107832
42
0.41421356237308693
10
-175.81236838674155
20
64.637649780191836
10
-164.07459717793586
20
67.132590070004952
42
0.4142135623731405
0
LWPOLYLINE
5
143
100
AcDbEntity
8
0
100
AcDbPolyline
90
8
70
1
43
0.0
10
-49.660000000000011
20
28.190000000000019
10
-61.660000000000025
20
28.190000000000005
42
0.4142135623730846
10
-62.660000000000018
20
27.189999999999994
10
-62.659999999999997
20
15.190000000000001
42
0.41421356237309243
10
-61.659999999999982
20
14.189999999999996
10
-49.659999999999982
20
14.189999999999987
42
0.41421356237308915
10
-48.659999999999997
20
15.190000000000001
10
-48.659999999999989
20
27.190000000000033
42
0.41421356237307944
0
LWPOLYLINE
5
144
100
AcDbEntity
8
0
100
AcDbPolyline
90
8
70
1
43
0.0
10
-247.16000000000005
20
47.240000000000038
42
-0.41421356237304563
10
-246.16
20
46.240000000000016
10
-246.16
20
34.240000000000002
42
-0.41421356237312101
10
-247.16000000000005
20
33.240000000000016
10
-259.16000000000008
20
33.240000000000002
42
-0.41421356237310153
10
-260.16000000000014
20
34.240000000000002
10
-260.16000000000014
20
46.239999999999981
42
-0.41421356237308721
10
-259.16000000000008
20
47.240000000000002
0
LWPOLYLINE
5
145
100
AcDbEntity
8
0
100
AcDbPolyline
90
8
70
1
43
0.0
10
-68.70999999999998
20
65.290000000000006
10
-68.70999999999998
20
53.290000000000006
42
0.41421356237308204
10
-67.710000000000008
20
52.289999999999999
10
-55.70999999999998
20
52.290000000000006
42
0.41421356237308204
10
-54.710000000000001
20
53.290000000000049
10
-54.70999999999998
20
65.290000000000077
42
0.41421356237308721
10
-55.710000000000015
20
66.290000000000035
10
-67.710000000000022
20
66.29000000000002
42
0.41421356237307683
0
LWPOLYLINE
5
146
100
AcDbEntity
8
0
100
AcDbPolyline
90
8
70
1
43
0.0
10
-70.07573255987289
20
86.439563060230142
10
-81.813503768678558
20
88.934503350043244
42
0.41421356237312662
10
-82.999563060230059
20
88.164267440127162
10
-85.494503350043217
20
76.426496231321451
42
0.41421356237310525
10
-84.724267440127193
20
75.240436939769921
10
-72.986496231321468
20
72.745496649956792
42
0.41421356237315937
10
-71.800436939769952
20
73.515732559872831
10
-69.305496649956822
20
85.253503768678556
42
0.41421356237305579
0
LWPOLYLINE
5
147
100
AcDbEntity
8
0
100
AcDbPolyline
90
8
70
1
43
0.0
10
-240.80000000000007
20
53.290000000000006
42
-0.41421356237313145
10
-241.80000000000007
20
52.29000000000002
10
-253.80000000000001
20
52.289999999999999
42
-0.41421356237309243
10
-254.80000000000004
20
53.290000000000006
10
-254.80000000000007
20
65.289999999999992
42
-0.41421356237307422
10
-253.80000000000001
20
66.290000000000035
10
-241.80000000000007
20
66.29000000000002
42
-0.41421356237308204
10
-240.80000000000001
20
65.290000000000077
0
LWPOLYLINE
5
148
100
AcDbEntity
8
0
100
AcDbPolyline
90
8
70
1
43
0.0
10
-163.7253608493846
20
42.566656480278212
10
-175.46313205819018
20
40.071716190465096
42
0.41421356237310025
10
-176.23336796810631
20
38.88565689891351
10
-173.73842767829319
20
27.147885690107827
42
0.41421356237306955
10
-172.55236838674153
20
26.37764978019181
10
-160.81459717793589
20
28.872590070004897
42
0.41421356237310691
10
-160.04436126801988
20
30.058649361556515
10
-162.53930155783291
20
41.796420570362187
42
0.41421356237304002
0
LWPOLYLINE
5
149
100
AcDbEntity
8
0
100
AcDbPolyline
90
8
70
1
43
0.0
10
-196.56743227618296
20
94.014381422895156
10
-215.29284540773108
20
90.034171991802054
42
0.41421356237309287
10
-216.06308131764709
20
88.84811270025051
10
-213.56814102783363
20
77.110341491444856
42
0.41421356237310014
10
-212.38208173628209
20
76.34010558152886
10
-193.65666860473397
20
80.320315012621933
42
0.41421356237309503
10
-192.88643269481796
20
81.506374304173505
10
-195.38137298463138
20
93.244145512979131
42
0.41421356237310009
0
LWPOLYLINE
5
150
100
AcDbEntity
8
0
100
AcDbPolyline
90
8
70
1
43
0.0
10
-71.260436939769903
20
32.915732559872829
42
-0.41421356237311241
10
-72.446496231321461
20
32.14549664995679
10
-84.18426744012713
20
34.640436939769913
42
-0.41421356237315121
10
-84.954503350043183
20
35.826496231321478
10
-82.459563060230067
20
47.564267440127146
42
-0.41421356237309559
10
-81.273503768678552
20
48.334503350043221
10
-69.535732559872827
20
45.839563060230091
42
-0.41421356237307361
10
-68.765496649956773
20
44.653503768678526
0
LWPOLYLINE
5
151
100
AcDbEntity
8
0
100
AcDbPolyline
90
8
70
1
43
0.0
10
-49.359999999999999
20
34.240000000000009
10
-49.359999999999999
20
46.240000000000052
42
0.41421356237308982
10
-50.360000000000014
20
47.240000000000023
10
-62.360000000000042
20
47.240000000000023
42
0.41421356237306123
10
-63.359999999999999
20
46.240000000000016
10
-63.359999999999999
20
34.239999999999995
42
0.41421356237309764
10
-62.360000000000007
20
33.240000000000009
10
-50.359999999999999
20
33.240000000000009
42
0.41421356237309503
0
LWPOLYLINE
5
152
100
AcDbEntity
8
0
100
AcDbPolyline
90
8
70
1
43
0.0
10
-237.07350376867851
20
32.145496649956819
10
-225.33573255987289
20
34.640436939769941
42
0.41421356237308815
10
-224.56549664995686
20
35.826496231321528
10
-227.06043693976989
20
47.564267440127203
42
0.41421356237312412
10
-228.2464962313216
20
48.334503350043221
10
-239.98426744012718
20
45.839563060230084
42
0.41421356237306289
10
-240.75450335004334
20
44.65350376867849
10
-238.25956306023014
20
32.915732559872851
42
0.41421356237300572
0
LWPOLYLINE
5
153
100
AcDbEntity
8
0
100
AcDbPolyline
90
8
70
1
43
0.0
10
-140.08540282206417
20
46.522590070004817
42
-0.41421356237313484
10
-140.85563873198021
20
47.70864936155639
10
-138.36069844216706
20
59.446420570362051
42
-0.41421356237307921
10
-137.17463915061558
20
60.216656480278104
10
-125.43686794180987
20
57.721716190465003
42
-0.41421356237311341
10
-124.66663203189378
20
56.535656898913437
10
-127.16157232170687
20
44.797885690107748
42
-0.41421356237312662
10
-128.34763161325847
20
44.027649780191702
0
LWPOLYLINE
5
154
100
AcDbEntity
8
0
100
AcDbPolyline
90
8
70
1
43
0.0
10
-200.57178485597788
20
60.397213941399848
10
-203.06672514579105
20
72.134985150205523
42
0.41421356237306795
10
-204.25278443734257
20
72.905221060121548
10
-215.99055564614815
20
70.410280770308418
42
0.41421356237309759
10
-216.76079155606428
20
69.224221478756846
10
-214.26585126625113
20
57.486450269951163
42
0.41421356237305634
10
-213.07979197469962
20
56.716214360035131
10
-201.34202076589389
20
59.211154649848311
42
0.41421356237314921
0
LWPOLYLINE
5
155
100
AcDbEntity
8
0
100
AcDbPolyline
90
8
70
1
43
0.0
10
-118.62274055827947
20
94.199398831600277
42
-0.41421356237307871
10
-117.85250465039974
20
93.013339538726342
10
-120.55535665286212
20
80.297420733827281
42
-0.4142135623731007
10
-121.74141594573604
20
79.527184825947558
10
-126.63215394762031
20
80.566743288433074
42
-0.41421356237310525
10
-127.40238985550023
20
81.752802581307321
10
-124.69953785303792
20
94.468721386206084
42
-0.41421356237309104
10
-123.51347856016397
20
95.23895729408585
0
LWPOLYLINE
5
156
100
AcDbEntity
8
0
100
AcDbPolyline
90
8
70
1
43
0.0
10
-28.928750000000004
20
47.240000000000052
42
-0.41421356237310025
10
-27.928749999999948
20
46.239999999999995
10
-27.928750000000001
20
34.240000000000144
42
-0.41421356237309764
10
-28.928750000000136
20
33.240000000000009
10
-40.928750000000029
20
33.239999999999995
42
-0.41421356237309892
10
-41.928750000000036
20
34.240000000000002
10
-41.928750000000051
20
46.24000000000003
42
-0.41421356237309503
10
-40.928750000000022
20
47.240000000000066
0
LWPOLYLINE
5
157
100
AcDbEntity
8
0
100
AcDbPolyline
90
8
70
1
43
0.0
10
-219.20549664995687
20
56.436496231321499
42
-0.41421356237308998
10
-219.97573255987282
20
55.250436939769898
10
-231.71350376867849
20
52.755496649956797
42
-0.4142135623731012
10
-232.89956306023012
20
53.525732559872822
10
-235.39450335004329
20
65.263503768678504
42
-0.41421356237308998
10
-234.62426744012717
20
66.449563060230105
10
-222.88649623132162
20
68.944503350043249
42
-0.41421356237307616
10
-221.70043693976999
20
68.174267440127181
0
LWPOLYLINE
5
158
100
AcDbEntity
8
0
100
AcDbPolyline
90
25
70
1
43
0.0
10
-294.19424999502183
20
66.790000091689862
42
-0.41421356246421215
10
-294.69424999517742
20
66.290000091689862
10
-296.66250000972889
20
66.290000092302265
42
0.4142135624642434
10
-297.66250000000002
20
65.29000010234229
10
-297.66250000000002
20
53.2899999999999
42
0.41421356237309243
10
-296.66250000000008
20
52.289999999999992
10
-263.23125000000067
20
52.29000000000002
42
0.41421356237309764
10
-262.23125000000061
20
53.290000000000106
10
-262.23125000000005
20
65.289999999999807
42
0.33468323849638726
10
-262.95591666666621
20
66.251348820956764
42
-0.33468323849639647
10
-263.31824999999935
20
66.732023231435235
10
-263.31824999999935
20
67.290000000045978
42
0.41421356237309503
10
-264.31824999999941
20
68.290000000045978
10
-269.31824999999935
20
68.290000000045978
42
0.41421356237309503
10
-270.31824999999935
20
67.290000000045978
10
-270.3182499999993
20
66.789999999999822
42
-0.41421356237307422
10
-270.81824999999935
20
66.289999999999822
10
-275.2312500000001
20
66.290000000000362
10
-284.66249999968767
20
66.290000088568618
10
-286.69424999517742
20
66.29000008920076
42
-0.41421356228196227
10
-287.19424999502183
20
66.790000089200774
10
-287.19424999502189
20
67.289999999556414
42
0.41421356237309503
10
-288.19424999502189
20
68.289999999556414
10
-293.19424999502183
20
68.2899999995564
42
0.41421356237309503
10
-294.19424999502183
20
67.2899999995564
0
LWPOLYLINE
5
159
100
AcDbEntity
8
0
100
AcDbPolyline
90
107
70
1
43
0.0
10
-85.807523284786242
20
9.6296929676192065
42
-0.059300373894538121
10
-85.882694694710878
20
9.4055943871826919
42
0.11097890450709215
10
-85.978842279572717
20
8.9777500093431843
10
-85.978842279572717
20
3.7494070844843153
42
-0.41421356237309687
10
-86.978842279572717
20
2.7494070844843153
10
-134.97884227957272
20
2.7494070844843135
42
-0.41421356237309664
10
-135.97884227957272
20
3.7494070844843153
10
-135.97884227957272
20
8.9777500093431666
42
0.11097890450706785
10
-136.07498986443454
20
9.4055943871827168
42
-0.059300373894514279
10
-136.15016127435919
20
9.6296929676192544
42
0.82143350926497527
10
-142.82037852405747
20
9.564759396294475
42
-0.36080805011589856
10
-143.8031833018471
20
8.7494070844843179
10
-165.70681669672283
20
8.7494070844843357
42
-0.36080805011590267
10
-166.68962147451248
20
9.5647593962944732
42
0.82143350926497694
10
-173.35983872421076
20
9.6296929676192082
42
-0.05930037389444888
10
-173.43501013413538
20
9.4055943871826777
42
0.11097890450710274
10
-173.53115771899724
20
8.9777500093431168
10
-173.53115771899721
20
3.7494070844843175
42
-0.41421356237310542
10
-174.53115771899724
20
2.749407084484317
10
-222.53115771899724
20
2.7494070844843388
42
-0.41421356237310542
10
-223.53115771899724
20
3.7494070844843175
10
-223.53115771899724
20
8.9777500093431701
42
0.11097890450703916
10
-223.627305303859
20
9.4055943871826351
42
-0.059300373894568756
10
-223.70247671378365
20
9.6296929676191372
42
0.82143350926498737
10
-230.37269396348199
20
9.564759396294491
42
-0.36080805011590361
10
-231.35549874127167
20
8.7494070844843392
10
-245.16250000000153
20
8.7494070844843428
42
0.41421356237309503
10
-246.16250000000153
20
7.7494070844843428
10
-246.16250000000153
20
7.1770459679474099
42
-0.21464998187321244
10
-246.28881578947525
20
6.8963661442427053
42
0.44814088010570924
10
-246.29822834508047
20
3.9108407311924633
42
-0.26304363788376151
10
-246.18038385565154
20
3.5611310132297911
42
-0.35976491252855813
10
-247.16250000000156
20
2.7494070844843188
10
-295.1625000000015
20
2.7494070844843046
42
-0.41421356237307422
10
-296.16250000000156
20
3.7494070844843188
10
-296.16250000000156
20
9.2204430517144864
42
0.1160845452816478
10
-296.26745718711561
20
9.6664232789680113
42
-0.047996318477670386
10
-296.33607019826917
20
9.8452566312732319
42
0.31189392236997326
10
-299.30340909090893
20
12.322878521026063
42
-0.38779458240888298
10
-300.21249999999873
20
13.318737716491196
10
-300.21249999990124
20
87.33999999593911
42
-0.41421356237280887
10
-299.2124999999009
20
88.339999995937774
10
-297.1625000000019
20
88.339999995937063
42
0.41421356237319906
10
-296.16250000000156
20
89.339999995937063
10
-296.1625000000015
20
93.339999995932345
42
-0.41421356237307422
10
-295.1625000000015
20
94.339999995932345
10
-247.16250000000156
20
94.339999995932345
42
-0.35976491252850978
10
-246.18038385565154
20
93.528276067187065
42
-0.26304363788384838
10
-246.29822834508045
20
93.178566349224354
42
0.44814088010571973
10
-246.28881578947528
20
90.193040936174128
42
-0.21464998187320231
10
-246.16250000000153
20
89.912361112469398
10
-246.16250000000153
20
89.339999995925453
42
0.41421356237309503
10
-245.16250000000153
20
88.339999995925467
10
-245.02772188086391
20
88.339999995925481
42
0.052407779282106236
10
-244.81981019004985
20
88.361852395191136
10
-225.3596656309098
20
92.498233812206763
42
0.41421356237308998
10
-224.5894297209893
20
93.684293103755408
10
-225.42107648424565
20
97.596883506693757
42
-0.41421356237310014
10
-224.65084057432517
20
98.782942798242445
10
-177.6997557390649
20
108.76270395731825
42
-0.41421356237311652
10
-176.51369644751622
20
107.99246804739772
10
-175.68204968425991
20
104.07987764445936
42
0.41421356237309903
10
-174.49599039271124
20
103.30964173453884
10
-163.63396517454763
20
105.61843646764208
42
-0.052407779282057254
10
-163.42605348373354
20
105.6402888669075
10
-146.08394651483948
20
105.64028886690721
42
-0.052407779283052632
10
-145.87603482402176
20
105.61843646764103
10
-135.01400962649623
20
103.30964173888184
42
0.41421356237308782
10
-133.82795033494472
20
104.0798776487979
10
-132.99630357167368
20
107.99246805173306
42
-0.4142135623731063
10
-131.81024428012216
20
108.76270396164909
10
-84.859159444899461
20
98.782942802396661
42
-0.41421356237310525
10
-84.088923534983422
20
97.596883510845117
10
-84.920570298254475
20
93.684293107909852
42
0.41421356237309503
10
-84.15033438833845
20
92.49823381635828
10
-64.690189829214447
20
88.361852399269225
42
0.052407779283039801
10
-64.482278138396694
20
88.340000000003045
10
-58.019999999999968
20
88.340000000002888
42
0.41421356237310281
10
-57.019999999999946
20
89.340000000002888
10
-57.019999999999968
20
89.912361116538207
42
-0.21464998187339396
10
-56.893684210526274
20
90.193040940242923
42
0.4481408801057406
10
-56.884271654921015
20
93.178566353293235
42
-0.26304363788382301
10
-57.002116144349991
20
93.528276071255846
42
-0.35976491252858711
10
-56.019999999999953
20
94.34000000000151
10
-8.0199999999999427
20
94.340000000001481
42
-0.41421356237309664
10
-7.0199999999999463
20
93.340000000001481
10
-7.0199999999999463
20
89.340000000001652
42
0.41421356237308821
10
-6.0199999999999694
20
88.340000000001666
10
-0.96999999999993469
20
88.340000000001538
42
-0.41421356237309931
10
0.030000000000036664
20
87.340000000001538
10
0.030000000000041244
20
13.318737716490293
42
-0.3877945824087986
10
-0.87909090909086329
20
12.322878521026359
42
0.33529169545972565
10
-3.9115362444847164
20
9.5647593962944413
42
-0.36080805011588862
10
-4.8943410222743564
20
8.7494070844842877
10
-6.0199999999999481
20
8.7494070844842859
42
0.4142135623730947
10
-7.0199999999999463
20
7.7494070844842868
10
-7.0199999999999472
20
3.7494070844843161
42
-0.41421356237309437
10
-8.0199999999999427
20
2.7494070844843166
10
-56.019999999999953
20
2.7494070844843193
42
-0.35976491252852383
10
-57.002116144349969
20
3.5611310132297462
42
-0.26304363788390123
10
-56.884271654921008
20
3.9108407311924402
42
0.44814088010572795
10
-56.893684210526267
20
6.8963661442427417
42
-0.21464998187337281
10
-57.019999999999946
20
7.1770459679474445
10
-57.019999999999946
20
7.7494070844842957
42
0.41421356237310025
10
-58.01999999999996
20
8.7494070844842948
10
-78.154501257298278
20
8.7494070844842966
42
-0.36080805011589784
10
-79.137306035087931
20
9.5647593962944573
42
0.82143350926498215
0
ENDSEC
0
SECTION
2
OBJECTS
0
DICTIONARY
5
C
100
AcDbDictionary
3
ACAD_GROUP
350
D
3
ACAD_MLINESTYLE
350
17
0
DICTIONARY
5
D
100
AcDbDictionary
0
DICTIONARY
5
1A
330
C
100
AcDbDictionary
0
DICTIONARY
5
17
100
AcDbDictionary
0
ENDSEC
0
EOF
